<svg xmlns="http://www.w3.org/2000/svg" xmlns:xlink="http://www.w3.org/1999/xlink" width="100" height="100" viewBox="0 0 100 100"><g><g transform="translate(50 50) scale(0.69 0.69) rotate(0) translate(-50 -50)" style="fill:#000000"><svg fill="#000000" xmlns="http://www.w3.org/2000/svg" xmlns:xlink="http://www.w3.org/1999/xlink" version="1.1" x="0px" y="0px" viewBox="0 0 100 100" style="enable-background:new 0 0 100 100;" xml:space="preserve"><style type="text/css">
	.st0{fill:none;stroke:#000000;stroke-width:2;stroke-linecap:round;stroke-linejoin:round;stroke-miterlimit:10;}
</style>
<path class="graphic-primary" d="M47.6,34.9L47,38.1c0,0.2,0,0.3,0.2,0.4c0.1,0.1,0.3,0.1,0.4,0l2.9-1.5l2.9,1.5c0.1,0,0.1,0,0.2,0c0.1,0,0.2,0,0.2-0.1  c0.1-0.1,0.2-0.2,0.2-0.4l-0.5-3.2l2.3-2.3c0.1-0.1,0.1-0.3,0.1-0.4c0-0.1-0.2-0.3-0.3-0.3l-3.2-0.5l-1.4-2.9  c-0.1-0.3-0.6-0.3-0.7,0l-1.4,2.9l-3.2,0.5c-0.2,0-0.3,0.1-0.3,0.3c0,0.1,0,0.3,0.1,0.4L47.6,34.9z"></path>
<path class="graphic-secondary" d="M22.7,83.6l11.2-5.8l4.4,11.8c0.1,0.4,0.5,0.6,0.9,0.7c0,0,0,0,0,0c0.4,0,0.8-0.3,0.9-0.6l10.2-26.2l10.2,26.2  c0.1,0.4,0.5,0.6,0.9,0.6c0,0,0,0,0,0c0.4,0,0.8-0.3,0.9-0.7l4.4-11.8L78,83.6c0.4,0.2,0.8,0.1,1.1-0.1c0.3-0.3,0.4-0.7,0.3-1.1  L67.2,50.8c4.1-4.2,6.6-10,6.6-16.3c0-13-10.6-23.5-23.5-23.5S26.8,21.5,26.8,34.5c0,6.4,2.6,12.2,6.7,16.4L21.3,82.3  c-0.2,0.4,0,0.8,0.3,1.1C21.9,83.7,22.3,83.8,22.7,83.6z M39.3,86.5l-3.7-10.1l7.6-19.6c2.3,0.7,4.7,1.1,7.2,1.1c0,0,0,0,0,0  L39.3,86.5z M61.4,86.5l-10-25.8l1.1-2.8c1.8-0.2,3.5-0.5,5.1-1.1l7.6,19.6L61.4,86.5z M76.6,80.6l-9.6-4.9l-7.6-19.6  c2.3-1,4.3-2.3,6.2-3.8L76.6,80.6z M28.8,34.5c0-11.9,9.7-21.5,21.5-21.5s21.5,9.7,21.5,21.5S62.2,56,50.3,56S28.8,46.3,28.8,34.5z   M35,52.4c1.8,1.6,3.9,2.9,6.2,3.8l-7.6,19.5l-9.6,4.9L35,52.4z"></path>
<path class="graphic-tertiary" d="M36,45.5c-0.1,0.3,0,0.6,0.2,0.8c0.2,0.2,0.5,0.4,0.8,0.4l3.1-0.1l0.5,3.1c0,0.3,0.2,0.6,0.5,0.7c0.3,0.2,0.6,0.2,0.9,0.1  l2.9-1.1l1.5,2.7c0.1,0.3,0.4,0.4,0.7,0.5c0.3,0.1,0.6,0,0.8-0.2l2.4-2.1l2.4,2.1c0.2,0.2,0.4,0.2,0.7,0.2c0.1,0,0.1,0,0.2,0  c0.3-0.1,0.6-0.2,0.7-0.5l1.5-2.7l2.9,1.1c0.3,0.1,0.6,0.1,0.9-0.1c0.3-0.2,0.4-0.4,0.5-0.7l0.5-3.1l3.1,0.1c0.3,0,0.6-0.1,0.8-0.4  c0.2-0.2,0.3-0.5,0.2-0.8L64,42.4l3-1c0.3-0.1,0.5-0.3,0.6-0.6c0.1-0.3,0.1-0.6-0.1-0.9l-1.6-2.7l2.4-2c0.2-0.2,0.4-0.5,0.4-0.8  s-0.1-0.6-0.4-0.8l-2.4-2l1.6-2.7c0.2-0.3,0.2-0.6,0.1-0.9c-0.1-0.3-0.3-0.5-0.6-0.6l-3-1l0.6-3.1c0.1-0.3,0-0.6-0.2-0.8  c-0.2-0.2-0.5-0.3-0.8-0.4l-3.1,0.1L60,19.2c0-0.3-0.2-0.6-0.5-0.7s-0.6-0.2-0.9-0.1l-2.9,1.1l-1.5-2.7c-0.1-0.3-0.4-0.4-0.7-0.5  c-0.3-0.1-0.6,0-0.8,0.2l-2.4,2.1l-2.4-2.1c-0.2-0.2-0.5-0.3-0.8-0.2c-0.3,0.1-0.6,0.2-0.7,0.5l-1.5,2.7l-2.9-1.1  c-0.3-0.1-0.6-0.1-0.9,0.1s-0.4,0.4-0.5,0.7l-0.5,3.1L37,22.3c-0.3,0-0.6,0.1-0.8,0.4c-0.2,0.2-0.3,0.5-0.2,0.8l0.6,3.1l-3,1  c-0.3,0.1-0.5,0.3-0.6,0.6c-0.1,0.3-0.1,0.6,0.1,0.9l1.6,2.7l-2.4,2c-0.2,0.2-0.4,0.5-0.4,0.8s0.1,0.6,0.4,0.8l2.4,2l-1.6,2.7  c-0.2,0.3-0.2,0.6-0.1,0.9c0.1,0.3,0.3,0.5,0.6,0.6l3,1L36,45.5z M35.4,39.9l1.4-2.4c0.3-0.4,0.2-1-0.2-1.3l-2.2-1.7l2.2-1.7  c0.4-0.3,0.5-0.9,0.2-1.3L35.4,29l2.6-0.9c0.5-0.2,0.8-0.6,0.7-1.1l-0.5-2.7l2.8,0.1c0,0,0,0,0,0c0.5,0,0.9-0.4,1-0.8l0.4-2.7l2.6,1  c0.5,0.2,1,0,1.2-0.4l1.3-2.4l2.1,1.8c0.4,0.3,0.9,0.3,1.3,0l2.1-1.8l1.3,2.4c0.2,0.4,0.8,0.6,1.2,0.4l2.6-1l0.4,2.7  c0.1,0.5,0.5,0.8,1,0.8c0,0,0,0,0,0l2.8-0.1L61.9,27c-0.1,0.5,0.2,1,0.7,1.1l2.6,0.9l-1.4,2.4c-0.3,0.4-0.2,1,0.2,1.3l2.2,1.7  L64,36.2c-0.4,0.3-0.5,0.9-0.2,1.3l1.4,2.4l-2.6,0.9c-0.5,0.2-0.8,0.6-0.7,1.1l0.5,2.7l-2.8-0.1c-0.5,0-0.9,0.4-1,0.8l-0.4,2.7  l-2.6-1c-0.5-0.2-1,0-1.2,0.4L53,50l-2.1-1.8C50.8,48,50.5,48,50.3,48s-0.5,0.1-0.7,0.2L47.5,50l-1.3-2.4C46,47.2,45.4,47,45,47.2  l-2.6,1L42,45.4c-0.1-0.5-0.5-0.8-1-0.8l-2.8,0.1l0.5-2.7c0.1-0.5-0.2-1-0.7-1.1L35.4,39.9z"></path></svg></g></g></svg>
