<svg xmlns="http://www.w3.org/2000/svg" xmlns:xlink="http://www.w3.org/1999/xlink" width="100" height="100" viewBox="0 0 100 100"><g><g transform="translate(50 50) scale(0.69 0.69) rotate(0) translate(-50 -50)" style="fill:#000000"><svg fill="#000000" xmlns="http://www.w3.org/2000/svg" xmlns:xlink="http://www.w3.org/1999/xlink" version="1.1" x="0px" y="0px" viewBox="0 0 100 100" style="enable-background:new 0 0 100 100;" xml:space="preserve"><style type="text/css">
	.st0{fill:none;stroke:#000000;stroke-width:2;stroke-linecap:round;stroke-linejoin:round;stroke-miterlimit:10;}
</style>
<path class="graphic-primary" d="M49,55l-2,4.1l-4.5,0.6c-0.2,0-0.4,0.2-0.4,0.4c-0.1,0.2,0,0.4,0.1,0.6l3.2,3.2l-0.8,4.5c0,0.2,0.1,0.4,0.2,0.5  c0.2,0.1,0.4,0.1,0.6,0l4-2.1l4,2.1c0.1,0,0.2,0.1,0.3,0.1c0.1,0,0.2,0,0.3-0.1c0.2-0.1,0.3-0.3,0.2-0.5l-0.8-4.5l3.2-3.2  c0.2-0.1,0.2-0.4,0.1-0.6c-0.1-0.2-0.2-0.3-0.4-0.4L52,59.1L50,55C49.8,54.7,49.2,54.7,49,55z"></path>
<path class="graphic-secondary" d="M36.1,36.3h10.1c-0.4,0.6-0.6,1.3-0.6,2.1c0,0.8,0.3,1.6,0.7,2.3C36,42.3,28.1,51.2,28.1,61.9c0,11.8,9.6,21.4,21.4,21.4  S71,73.7,71,61.9c0-10.7-7.9-19.6-18.1-21.1c0.4-0.6,0.7-1.4,0.7-2.3c0-0.8-0.2-1.5-0.6-2.1H63c8.8,0,16-7.2,16-16v-2.5  c0-0.6-0.4-1-1-1h-57c-0.6,0-1,0.4-1,1v2.5C20.1,29.1,27.2,36.3,36.1,36.3z M69,61.9c0,10.7-8.7,19.4-19.4,19.4s-19.4-8.7-19.4-19.4  s8.7-19.4,19.4-19.4S69,51.1,69,61.9z M47.5,38.4c0-1.1,0.9-2,2-2s2,0.9,2,2s-0.9,2-2,2S47.5,39.5,47.5,38.4z M59.2,18.8H77v1.5  c0,7.7-6.3,14-14,14h-3.8V18.8z M41.9,18.8h15.3v15.5H41.9V18.8z M22.1,18.8h17.8v15.5h-3.8c-7.7,0-14-6.3-14-14V18.8z"></path></svg></g></g></svg>
