<svg xmlns="http://www.w3.org/2000/svg" xmlns:xlink="http://www.w3.org/1999/xlink" width="100" height="100" viewBox="0 0 100 100">
<g>
<g transform="translate(50 50) scale(0.69 0.69) rotate(0) translate(-50 -50)" style="fill:#000000">
<svg fill="#000000" xmlns="http://www.w3.org/2000/svg" xmlns:xlink="http://www.w3.org/1999/xlink" version="1.1" x="0px" y="0px" viewBox="0 0 100 100" style="enable-background:new 0 0 100 100;" xml:space="preserve">
<style type="text/css">
	.st0{fill:none;stroke:#000000;stroke-width:2;stroke-linecap:round;stroke-linejoin:round;stroke-miterlimit:10;}
</style>
<path class="graphic-primary" d="M55.3,62.9l-3.5-0.5l-1.6-3.2c-0.2-0.3-0.6-0.3-0.8,0l-1.6,3.2l-3.5,0.5c-0.2,0-0.3,0.1-0.4,0.3c-0.1,0.2,0,0.3,0.1,0.5  l2.6,2.5l-0.6,3.5c0,0.2,0,0.3,0.2,0.4c0.1,0.1,0.3,0.1,0.5,0l3.2-1.7l3.2,1.7c0.1,0,0.1,0.1,0.2,0.1c0.1,0,0.2,0,0.3-0.1  c0.1-0.1,0.2-0.3,0.2-0.4l-0.6-3.5l2.6-2.5c0.1-0.1,0.2-0.3,0.1-0.5C55.6,63.1,55.4,63,55.3,62.9z"></path>
<path class="graphic-tertiary" d="M49.7,47.5c-9.4,0-17.1,7.7-17.1,17.1c0,9.4,7.7,17.1,17.1,17.1s17.1-7.7,17.1-17.1C66.9,55.2,59.2,47.5,49.7,47.5z   M49.7,79.8c-8.3,0-15.1-6.8-15.1-15.1c0-8.3,6.8-15.1,15.1-15.1s15.1,6.8,15.1,15.1C64.9,73,58.1,79.8,49.7,79.8z"></path>
<path class="graphic-secondary" d="M85.9,8.3c-0.2-0.3-0.5-0.5-0.9-0.5H65.3c-0.4,0-0.7,0.2-0.9,0.6L49.7,39.7L33.9,8.6C33.7,8.2,33.3,8,33,8L14.4,7.9  c-0.3,0-0.7,0.2-0.9,0.5c-0.2,0.3-0.2,0.7,0,1l19,38c-0.7,0.2-1.4,0.6-1.9,1.2c-0.7,0.9-1,2-0.8,3.2c0.2,0.9-0.3,1.8-1.2,2.1  c-1.1,0.4-1.9,1.2-2.3,2.3c-0.4,1.1-0.3,2.3,0.3,3.3c0.5,0.8,0.3,1.8-0.4,2.3c-0.9,0.7-1.4,1.8-1.4,3c0,1.2,0.5,2.2,1.4,3  c0.7,0.6,0.9,1.6,0.4,2.3c-0.6,1-0.7,2.2-0.3,3.3c0.4,1.1,1.2,1.9,2.3,2.3c0.8,0.3,1.4,1.2,1.2,2.1c-0.2,1.1,0.1,2.3,0.8,3.2  c0.7,0.9,1.8,1.4,2.9,1.4c0,0,0,0,0.1,0c0.8,0,1.7,0.6,1.8,1.5c0.2,1.1,0.9,2.1,1.9,2.7c1,0.6,2.2,0.7,3.3,0.3  c0.8-0.3,1.8,0,2.2,0.8c0.6,1,1.5,1.7,2.7,1.9c1.1,0.2,2.3-0.1,3.2-0.9c0.7-0.6,1.7-0.6,2.4,0c0.7,0.6,1.6,0.9,2.5,0.9  c0.2,0,0.4,0,0.7-0.1c1.1-0.2,2.1-0.9,2.7-1.9c0.4-0.8,1.4-1.1,2.2-0.8c1.1,0.4,2.3,0.3,3.3-0.3c1-0.6,1.7-1.6,1.9-2.7  c0.1-0.9,0.9-1.5,1.8-1.5c0,0,0.1,0,0.1,0c1.1,0,2.2-0.5,2.9-1.4c0.7-0.9,1-2,0.8-3.2c-0.2-0.9,0.3-1.8,1.2-2.1  c1.1-0.4,1.9-1.2,2.3-2.3c0.4-1.1,0.3-2.3-0.3-3.3c-0.5-0.8-0.3-1.8,0.4-2.3c0.9-0.7,1.4-1.8,1.4-3c0-1.2-0.5-2.2-1.4-3  c-0.7-0.6-0.9-1.6-0.4-2.3c0.6-1,0.7-2.2,0.3-3.3c-0.4-1.1-1.2-1.9-2.3-2.3c-0.8-0.3-1.4-1.2-1.2-2.1c0.2-1.1-0.1-2.3-0.8-3.2  c-0.5-0.6-1.2-1-1.9-1.2l19-38C86.1,9,86.1,8.6,85.9,8.3z M66,9.9h7.5L57.6,42.7c-0.3-0.2-0.6-0.4-0.8-0.8c-0.6-1-1.5-1.7-2.7-1.9  c-0.9-0.2-1.8,0-2.5,0.4L66,9.9z M32.4,10l15.5,30.4c-0.7-0.4-1.6-0.5-2.4-0.4c-1.1,0.2-2.1,0.9-2.7,1.9c-0.1,0.2-0.3,0.4-0.4,0.5  L26.1,10L32.4,10z M16.1,9.9l7.8,0.1l16.3,32.7c-1-0.3-2-0.2-2.9,0.3c-1,0.6-1.7,1.6-1.9,2.7c-0.1,0.5-0.4,1-0.8,1.2L16.1,9.9z   M67.4,49.8c0.4,0.4,0.5,1,0.4,1.5c-0.4,1.9,0.7,3.7,2.5,4.3c0.5,0.2,0.9,0.6,1.1,1.1s0.1,1.1-0.2,1.5c-1,1.6-0.6,3.7,0.9,4.9  c0.4,0.3,0.7,0.9,0.7,1.4c0,0.5-0.2,1.1-0.7,1.4c-1.5,1.2-1.8,3.3-0.9,4.9c0.3,0.5,0.3,1,0.2,1.5s-0.6,0.9-1.1,1.1  c-1.8,0.6-2.9,2.5-2.5,4.3c0.1,0.5,0,1.1-0.4,1.5C67,79.8,66.5,80.1,66,80c-1.9-0.1-3.5,1.3-3.8,3.2c-0.1,0.5-0.4,1-0.9,1.3  s-1,0.3-1.5,0.1c-1.8-0.7-3.8,0.1-4.7,1.7c-0.3,0.5-0.7,0.8-1.3,0.9c-0.5,0.1-1.1-0.1-1.5-0.4c-0.7-0.6-1.6-0.9-2.5-0.9  s-1.8,0.3-2.5,0.9c-0.4,0.4-1,0.5-1.5,0.4c-0.5-0.1-1-0.4-1.3-0.9c-0.9-1.7-2.9-2.4-4.7-1.7c-0.5,0.2-1.1,0.2-1.5-0.1  c-0.5-0.3-0.8-0.7-0.9-1.3c-0.3-1.9-1.9-3.3-3.8-3.2c-0.5,0-1.1-0.2-1.4-0.6c-0.4-0.4-0.5-1-0.4-1.5c0.4-1.9-0.7-3.7-2.5-4.3  c-0.5-0.2-0.9-0.6-1.1-1.1c-0.2-0.5-0.1-1.1,0.2-1.5c1-1.6,0.6-3.7-0.9-4.9c-0.4-0.3-0.7-0.9-0.7-1.4c0-0.5,0.2-1.1,0.7-1.4  c1.5-1.2,1.8-3.3,0.9-4.9c-0.3-0.5-0.3-1-0.2-1.5c0.2-0.5,0.6-0.9,1.1-1.1c1.8-0.6,2.9-2.5,2.5-4.3c-0.1-0.5,0-1.1,0.4-1.5  c0.4-0.4,0.9-0.7,1.4-0.6c1.9,0,3.5-1.3,3.8-3.2c0.1-0.5,0.4-1,0.9-1.3c0.5-0.3,1-0.3,1.5-0.1c0.7,0.3,1.5,0.3,2.2,0.1  c0.1,0,0.1,0,0.2-0.1c0.9-0.3,1.8-0.9,2.3-1.8c0.3-0.5,0.7-0.8,1.3-0.9c0.5-0.1,1.1,0.1,1.5,0.4c1.4,1.2,3.6,1.2,5,0v0  c0.4-0.4,1-0.5,1.5-0.4c0.5,0.1,1,0.4,1.3,0.9c0.9,1.7,2.9,2.4,4.7,1.7c0.5-0.2,1.1-0.2,1.5,0.1c0.5,0.3,0.8,0.7,0.9,1.3  c0.3,1.6,1.5,2.8,3,3.1c0,0,0.1,0,0.1,0c0,0,0.1,0,0.1,0c0,0,0.1,0,0.1,0c0,0,0,0,0,0c0.2,0,0.3,0,0.5,0  C66.5,49.2,67,49.4,67.4,49.8z M65,46.9c-0.4-0.3-0.8-0.7-0.8-1.2c-0.2-1.1-0.9-2.1-1.9-2.7c-0.7-0.4-1.6-0.6-2.4-0.5L75.7,9.9h7.8  L65,46.9z"></path>
</svg>
</g>
</g>
</svg>
