<svg xmlns="http://www.w3.org/2000/svg" xmlns:xlink="http://www.w3.org/1999/xlink" width="100" height="100" viewBox="0 0 100 100"><g><g transform="translate(50 50) scale(0.69 0.69) rotate(0) translate(-50 -50)" style="fill:#000000"><svg fill="#000000" xmlns="http://www.w3.org/2000/svg" xmlns:xlink="http://www.w3.org/1999/xlink" version="1.1" x="0px" y="0px" viewBox="0 0 100 100" style="enable-background:new 0 0 100 100;" xml:space="preserve"><style type="text/css">
	.st0{fill:none;stroke:#000000;stroke-width:2;stroke-linecap:round;stroke-linejoin:round;stroke-miterlimit:10;}
</style>
<path class="graphic-primary" d="M46.6,34.4l-0.5,3.2c0,0.2,0,0.3,0.2,0.4c0.1,0.1,0.3,0.1,0.4,0l2.9-1.5l2.9,1.5c0.1,0,0.1,0,0.2,0c0.1,0,0.2,0,0.2-0.1  c0.1-0.1,0.2-0.2,0.2-0.4l-0.5-3.2l2.3-2.3c0.1-0.1,0.1-0.3,0.1-0.4c0-0.1-0.2-0.3-0.3-0.3L51.3,31l-1.4-2.9c-0.1-0.3-0.6-0.3-0.7,0  L47.7,31l-3.2,0.5c-0.2,0-0.3,0.1-0.3,0.3c0,0.1,0,0.3,0.1,0.4L46.6,34.4z"></path>
<path class="graphic-tertiary" d="M49.5,48.7c8.6,0,15.7-7,15.7-15.7s-7-15.7-15.7-15.7s-15.7,7-15.7,15.7S40.9,48.7,49.5,48.7z M49.5,19.3  c7.5,0,13.7,6.1,13.7,13.7c0,7.5-6.1,13.7-13.7,13.7c-7.5,0-13.7-6.1-13.7-13.7C35.9,25.4,42,19.3,49.5,19.3z"></path>
<path class="graphic-secondary" d="M26.7,33c0,1.1,0.5,2.1,1.3,2.8c0.6,0.5,0.8,1.3,0.4,2c-0.6,0.9-0.7,2-0.3,3s1.2,1.8,2.2,2.1c0.7,0.2,1.2,1,1,1.8  c-0.2,1.1,0.1,2.1,0.8,3c0.5,0.6,1.3,1,2,1.2v38.4c0,0.4,0.2,0.7,0.6,0.9c0.3,0.2,0.8,0.1,1.1-0.1l13.8-11.1L63.4,88  c0.2,0.1,0.4,0.2,0.6,0.2c0.1,0,0.3,0,0.4-0.1c0.3-0.2,0.6-0.5,0.6-0.9V48.9c0.8-0.2,1.5-0.6,2-1.2c0.7-0.8,1-1.9,0.8-3  c-0.1-0.8,0.3-1.5,1-1.8c1-0.3,1.8-1.1,2.2-2.1s0.3-2.1-0.3-3c-0.4-0.7-0.2-1.5,0.4-2c0.8-0.7,1.3-1.7,1.3-2.8s-0.5-2.1-1.3-2.8  c-0.6-0.5-0.8-1.3-0.4-2c0.6-0.9,0.7-2,0.3-3c-0.4-1-1.2-1.8-2.2-2.1c-0.7-0.2-1.2-1-1-1.8c0.2-1.1-0.1-2.1-0.8-3  c-0.7-0.8-1.7-1.3-2.8-1.3c-0.8,0-1.4-0.5-1.6-1.3c-0.2-1.1-0.8-2-1.7-2.5c-0.9-0.5-2-0.6-3.1-0.2c-0.7,0.3-1.5,0-1.9-0.7  c-0.5-0.9-1.4-1.6-2.5-1.8c-1.1-0.2-2.1,0.1-2.9,0.8c-0.6,0.5-1.5,0.5-2,0c-0.8-0.7-1.9-1-2.9-0.8c-1.1,0.2-2,0.8-2.5,1.8  c-0.4,0.7-1.2,1-1.9,0.7c-1-0.4-2.1-0.3-3.1,0.2c-0.9,0.5-1.6,1.5-1.7,2.5c-0.1,0.8-0.8,1.3-1.6,1.3c-1.1,0-2.1,0.4-2.8,1.3  c-0.7,0.8-1,1.9-0.8,3c0.1,0.8-0.3,1.5-1,1.8c-1,0.3-1.8,1.1-2.2,2.1c-0.4,1-0.3,2.1,0.3,3c0.4,0.7,0.2,1.5-0.4,2  C27.2,30.9,26.7,31.9,26.7,33z M48.5,75.1l-12.5,10V49.5c0.2,0.2,0.3,0.4,0.3,0.7c0.2,1.1,0.8,2,1.7,2.5c0.9,0.5,2,0.6,3.1,0.2  c0.7-0.3,1.5,0,1.9,0.7c0.5,0.9,1.4,1.6,2.5,1.8c0.2,0,0.4,0.1,0.6,0.1c0.8,0,1.7-0.3,2.3-0.9c0,0,0,0,0,0V75.1z M63,85.1l-12.5-10  V54.6c0,0,0,0,0,0c0.8,0.7,1.9,1,2.9,0.8c1.1-0.2,2-0.8,2.5-1.8c0.4-0.7,1.2-1,1.9-0.7c1,0.4,2.1,0.3,3.1-0.2  c0.9-0.5,1.6-1.5,1.7-2.5c0-0.3,0.2-0.5,0.3-0.7V85.1z M29.3,31.8c1.4-1.1,1.7-3.1,0.8-4.6c-0.2-0.4-0.3-0.9-0.1-1.3  c0.2-0.4,0.5-0.8,1-0.9c1.7-0.6,2.7-2.3,2.3-4c-0.1-0.5,0-0.9,0.3-1.3c0.3-0.4,0.7-0.6,1.2-0.6c1.7,0.1,3.3-1.3,3.6-3  c0.1-0.5,0.3-0.9,0.8-1.1c0.4-0.2,0.9-0.3,1.3-0.1c1.6,0.6,3.5-0.1,4.4-1.6c0.2-0.4,0.6-0.7,1.1-0.8c0.5-0.1,0.9,0,1.3,0.4  c1.3,1.2,3.3,1.2,4.7,0c0.4-0.3,0.8-0.4,1.3-0.4c0.5,0.1,0.9,0.4,1.1,0.8c0.9,1.5,2.7,2.2,4.4,1.6c0.4-0.2,0.9-0.1,1.3,0.1  c0.4,0.2,0.7,0.6,0.8,1.1c0.3,1.7,1.8,3.1,3.6,3c0.5,0,0.9,0.2,1.2,0.6c0.3,0.4,0.4,0.8,0.3,1.3c-0.3,1.7,0.7,3.5,2.3,4  c0.4,0.2,0.8,0.5,1,0.9c0.2,0.4,0.1,0.9-0.1,1.3c-0.9,1.5-0.6,3.5,0.8,4.6c0.4,0.3,0.6,0.7,0.6,1.2s-0.2,0.9-0.6,1.2  c-1.4,1.1-1.7,3.1-0.8,4.6c0.2,0.4,0.3,0.9,0.1,1.3c-0.2,0.4-0.5,0.8-1,0.9c-1.7,0.6-2.7,2.3-2.3,4c0.1,0.5,0,0.9-0.3,1.3  c-0.3,0.4-0.7,0.6-1.2,0.6c0,0-0.1,0-0.1,0c-1.7,0-3.2,1.3-3.5,3c-0.1,0.5-0.3,0.9-0.8,1.1c-0.4,0.2-0.9,0.3-1.3,0.1  c-1.6-0.6-3.5,0.1-4.4,1.6c-0.2,0.4-0.6,0.7-1.1,0.8c-0.5,0.1-0.9,0-1.3-0.4c-1.3-1.2-3.3-1.2-4.7,0c-0.4,0.3-0.8,0.4-1.3,0.4  c-0.5-0.1-0.9-0.4-1.1-0.8c-0.6-1.2-1.9-1.8-3.1-1.8c-0.4,0-0.9,0.1-1.3,0.2c-0.4,0.2-0.9,0.1-1.3-0.1c-0.4-0.2-0.7-0.6-0.8-1.1  c-0.3-1.7-1.8-3.1-3.6-3c-0.5,0-0.9-0.2-1.2-0.6c-0.3-0.4-0.4-0.8-0.3-1.3c0.3-1.7-0.7-3.5-2.3-4c-0.4-0.2-0.8-0.5-1-0.9  c-0.2-0.4-0.1-0.9,0.1-1.3c0.9-1.5,0.6-3.5-0.8-4.6c-0.4-0.3-0.6-0.7-0.6-1.2S28.9,32.1,29.3,31.8z"></path></svg></g></g></svg>
