<?xml version="1.0" encoding="UTF-8"?>
<svg width="100pt" height="100pt" version="1.1" viewBox="0 0 100 100" xmlns="http://www.w3.org/2000/svg">
 <g>
  <path d="m31.25 84.375c-0.82031-0.003906-1.6055-0.32812-2.1875-0.90625-1.2109-1.2188-1.2109-3.1875 0-4.4062l62.5-62.5c1.2383-1.0625 3.0898-0.99219 4.2422 0.16406 1.1562 1.1523 1.2266 3.0039 0.16406 4.2422l-62.5 62.5c-0.58984 0.58594-1.3867 0.91016-2.2188 0.90625z"/>
  <path d="m31.25 84.375c-0.83203 0.003906-1.6289-0.32031-2.2188-0.90625l-25-25c-0.66016-0.56641-1.0547-1.3828-1.0898-2.2539-0.035156-0.86719 0.29688-1.7148 0.91406-2.3281 0.61328-0.61719 1.4609-0.94922 2.3281-0.91406 0.87109 0.035156 1.6875 0.42969 2.2539 1.0898l25 25c1.2109 1.2188 1.2109 3.1875 0 4.4062-0.58203 0.57812-1.3672 0.90234-2.1875 0.90625z"/>
 </g>
</svg>
