<?xml version="1.0" encoding="UTF-8"?>
<svg width="100pt" height="100pt" version="1.1" viewBox="0 0 100 100" xmlns="http://www.w3.org/2000/svg">
 <path d="m56.5 47.5l22.398-22.5c1.1992-1.1992 1.1992-3.1016 0-4.1992-1.1992-1.1992-3.1016-1.1992-4.1992 0l-22.398 22.5-22.5-22.5c-1.1992-1.1992-3.1016-1.1992-4.1992 0-1.1992 1.1992-1.1992 3.1016 0 4.1992l22.398 22.5-22.398 22.5c-1.1992 1.1992-1.1992 3.1016 0 4.1992 0.60156 0.60156 1.3984 0.89844 2.1016 0.89844 0.69922 0 1.5-0.30078 2.1016-0.89844l22.5-22.5 22.5 22.5c0.60156 0.60156 1.3984 0.89844 2.1016 0.89844 0.69922 0 1.5-0.30078 2.1016-0.89844 1.1992-1.1992 1.1992-3.1016 0-4.1992z"/>
</svg>
