<svg xmlns="http://www.w3.org/2000/svg" xmlns:xlink="http://www.w3.org/1999/xlink" width="100" height="100" viewBox="0 0 100 100"><g><g transform="translate(50 50) scale(0.69 0.69) rotate(0) translate(-50 -50)" style="fill:#000000"><svg fill="#000000" xmlns="http://www.w3.org/2000/svg" xmlns:xlink="http://www.w3.org/1999/xlink" version="1.2" baseProfile="tiny" x="0px" y="0px" viewBox="0 0 100 100" xml:space="preserve"><path d="M50,5C25.187,5,5,25.187,5,50s20.187,45,45,45s45-20.187,45-45S74.813,5,50,5z M50,90c-22.056,0-40-17.944-40-40   s17.944-40,40-40s40,17.944,40,40S72.056,90,50,90z"></path><path d="M65,47.5H35c-1.381,0-2.5,1.119-2.5,2.5s1.119,2.5,2.5,2.5h30c1.381,0,2.5-1.119,2.5-2.5S66.381,47.5,65,47.5z"></path></svg></g></g></svg>