<?xml version="1.0" encoding="UTF-8"?>
<svg width="100pt" height="100pt" version="1.1" viewBox="0 0 100 100" xmlns="http://www.w3.org/2000/svg">
 <g>
  <path d="m29.699 73.898s0.30078 0.30078 0.89844 0.69922c0.30078 0.19922 0.60156 0.5 1 0.89844 0.19922 0.19922 0.39844 0.39844 0.69922 0.5 0.19922 0.19922 0.39844 0.30078 0.69922 0.5 0.5 0.30078 0.89844 0.69922 1.5 1 0.60156 0.39844 1.3008 0.69922 2 1.1992 0.69922 0.5 1.5 0.80078 2.3984 1.1992 0.80078 0.39844 1.8008 0.69922 2.8008 1.1016 2 0.69922 4.1992 1.1016 6.6016 1.5 0.60156 0.10156 1.1992 0.10156 1.8008 0.10156 0.60156 0 1.1992 0.10156 1.8984 0.10156 1.3008-0.10156 2.6016 0 3.8984-0.30078 2.6992-0.30078 5.3008-1 8-2 0.69922-0.30078 1.3008-0.60156 2-0.80078 0.69922-0.30078 1.3008-0.69922 1.8984-1 1.3008-0.60156 2.5-1.5 3.6992-2.3008 0.60156-0.39844 1.1016-0.89844 1.6992-1.3984l0.89844-0.69922 0.10156-0.10156h0.10156s-0.10156 0.10156 0 0l0.59766-0.59766c0.5-0.5 1.1016-1.1016 1.6016-1.6016s0.89844-1.1016 1.3984-1.6016c1.8008-2.1992 3.3984-4.6992 4.6016-7.1992 1.1016-2.6016 2-5.1992 2.5-7.6992 0.5-2.6016 0.80078-5 0.69922-7.3008 0-2.3008-0.30078-4.3984-0.60156-6.3008-0.39844-1.8008-0.80078-3.5-1.1992-4.6992-0.39844-1.3008-0.80078-2.3008-1.1016-3-0.30078-0.69922-0.39844-1-0.39844-1s0.19922 0.30078 0.5 1c0.30078 0.60156 0.89844 1.6016 1.3984 2.8984 0.60156 1.1992 1.1992 2.8008 1.6992 4.6992 0.5 1.8984 1 4 1.1992 6.3984 0.30078 2.3984 0.30078 5 0 7.8008s-0.89844 5.6016-1.8984 8.5c-1 2.8984-2.3984 5.6992-4.1992 8.5-0.5 0.69922-1 1.3984-1.5 2.1016-0.5 0.60156-1 1.1992-1.5 1.8008l-0.60156 0.10156-0.40234 0.40234-0.085938 0.097657-0.89844 0.89844c-0.60156 0.60156-1.1992 1.1992-1.8008 1.6992-1.3008 1-2.5 2.1992-4 3.1016-0.69922 0.5-1.3984 1-2.1016 1.3984-0.69922 0.39844-1.5 0.80078-2.1992 1.1992-3 1.5-6.1016 2.6992-9.1992 3.3008-1.6016 0.39844-3.1016 0.60156-4.6992 0.80078-0.80078 0.10156-1.5 0.10156-2.3008 0.19922-0.80078 0-1.5 0.10156-2.3008 0.10156-3-0.10156-5.8008-0.39844-8.3008-1-1.3008-0.30078-2.5-0.60156-3.6016-1-1.1016-0.39844-2.1992-0.69922-3.1992-1.1992-1-0.39844-1.8984-0.80078-2.8008-1.1992-0.89844-0.5-1.6992-0.89844-2.3984-1.3008-0.30078-0.19922-0.69922-0.39844-1-0.60156-0.30078-0.19922-0.5-0.30078-0.69922-0.5-0.39844-0.30078-0.80078-0.60156-1.1016-0.80078-0.60156-0.39844-0.89844-0.60156-0.89844-0.60156-2.3008-1.6016-2.8984-4.6992-1.3008-7 1.6016-2.3008 4.6992-2.8984 7-1.3008 0.19922 0.10547 0.40234 0.20703 0.5 0.30469z"/>
  <path d="m70.102 25.898s-0.30078-0.19922-0.89844-0.69922c-0.30078-0.19922-0.60156-0.5-1-0.89844-0.19922-0.19922-0.39844-0.39844-0.69922-0.5-0.19922-0.19922-0.39844-0.30078-0.69922-0.5-0.39844-0.30078-0.89844-0.69922-1.5-1-0.5-0.39844-1.3008-0.69922-2-1.1992-0.69922-0.39844-1.5-0.80078-2.3984-1.1992-0.39844-0.19922-0.89844-0.39844-1.3008-0.60156-0.5-0.19922-0.89844-0.30078-1.3984-0.5-1-0.39844-2-0.60156-3.1016-0.89844-1.1016-0.30078-2.1992-0.39844-3.3984-0.60156-0.60156-0.10156-1.1992-0.10156-1.8008-0.10156s-1.1992-0.10156-1.8984-0.10156c-1.3008 0.10156-2.6016 0-3.8984 0.19922-2.6016 0.19922-5.3008 1-7.8984 1.8984-1.3008 0.60156-2.6016 1-3.8984 1.8008-0.60156 0.39844-1.3008 0.60156-1.8984 1.1016l-1.5 1.3008c-0.60156 0.39844-1.1016 0.89844-1.6992 1.3008l-0.80078 0.69922-0.5 0.30078h-0.10156c-0.10156 0.10156 0.10156-0.10156 0 0l-0.10156 0.19922-1.8008 1.8008c-0.5 0.5-0.89844 1.1016-1.3984 1.6016-1.8008 2.1992-3.3984 4.6016-4.6016 7.1016-1.1992 2.5-2.1016 5.1016-2.6016 7.6016s-0.89844 5-0.80078 7.3008v1.6992c0 0.5 0.10156 1.1016 0.10156 1.6016 0 1 0.19922 2 0.30078 2.8984 0.30078 1.8008 0.69922 3.3984 1.1016 4.6992 0.39844 1.3008 0.80078 2.3008 1 3 0.30078 0.69922 0.39844 1 0.39844 1s-0.19922-0.30078-0.5-1c-0.30078-0.60156-0.89844-1.6016-1.3008-2.8984-0.60156-1.1992-1.1016-2.8008-1.6016-4.6992-0.19922-0.89844-0.5-1.8984-0.69922-3-0.10156-0.5-0.19922-1.1016-0.30078-1.6016-0.10156-0.5-0.10156-1.1016-0.19922-1.6992-0.19922-2.3984-0.19922-5 0.10156-7.6992 0.30078-2.6992 1-5.6016 2-8.3984 1-2.8984 2.5-5.6992 4.3008-8.3984 0.5-0.69922 1-1.3984 1.5-2l1.5-1.8008 1.8008-1.8008c0.60156-0.60156 1.1016-1.1992 1.8008-1.6992l1.8984-1.6016c0.60156-0.5 1.3984-1 2-1.3984 1.3008-1 2.8008-1.6992 4.3008-2.5 3-1.3984 6.1016-2.6016 9.1992-3.1992 1.5-0.39844 3.1016-0.5 4.6016-0.80078 0.80078-0.10156 1.5-0.10156 2.3008-0.10156s1.5-0.10156 2.1992 0c1.5 0.10156 2.8984 0.10156 4.3008 0.30078 1.3984 0.19922 2.6992 0.39844 4 0.69922 0.60156 0.10156 1.3008 0.30078 1.8984 0.39844 0.60156 0.19922 1.1992 0.39844 1.6992 0.5 1.1016 0.39844 2.1992 0.69922 3.1992 1.1992 1 0.39844 1.8984 0.80078 2.6992 1.1992 0.89844 0.5 1.6016 0.89844 2.3008 1.3008 0.30078 0.19922 0.69922 0.39844 1 0.60156 0.30078 0.19922 0.5 0.30078 0.69922 0.5 0.39844 0.30078 0.80078 0.5 1.1016 0.80078 0.60156 0.39844 0.89844 0.60156 0.89844 0.60156 2.3008 1.6016 2.8984 4.6992 1.3008 7-1.6016 2.3008-4.6992 2.8984-7 1.3008-0.011718-0.20703-0.21094-0.30859-0.30859-0.41016z"/>
 </g>
</svg>
