<svg xmlns="http://www.w3.org/2000/svg" width="240" height="120" viewBox="0 0 240 120">
    <g fill="none" fill-rule="nonzero">
        <g fill="#3B8183">
            <path d="M87.54 30.996a2.773 2.773 0 1 1-5.066 2.257 24.404 24.404 0 0 0-22.3-14.48c-13.476 0-24.401 10.925-24.401 24.4 0 13.477 10.925 24.402 24.4 24.402a24.404 24.404 0 0 0 22.271-14.413 2.773 2.773 0 1 1 5.06 2.273 29.949 29.949 0 0 1-27.33 17.686c-16.54 0-29.947-13.408-29.947-29.947 0-16.54 13.408-29.947 29.947-29.947A29.949 29.949 0 0 1 87.54 30.996zm2.265 16.54a2.773 2.773 0 1 1-5.488-.802 24.626 24.626 0 0 0 .048-6.776 2.773 2.773 0 0 1 5.499-.723 30.2 30.2 0 0 1-.059 8.3z"/>
            <path d="M49.637 36.47a2.773 2.773 0 0 1-2.773-2.773V30.42c0-2.061 2.17-3.402 4.013-2.48l25.51 12.755c2.044 1.022 2.044 3.938 0 4.96l-25.51 12.755c-1.844.922-4.013-.419-4.013-2.48v-3.17a2.773 2.773 0 0 1 5.28-1.184l16.803-8.401-16.762-8.381a2.774 2.774 0 0 1-2.548 1.677zm2.773 9.723a2.773 2.773 0 0 1-5.546 0v-5.466a2.773 2.773 0 0 1 5.546 0v5.466z"/>
        </g>
        <g fill="#ED303C">
            <path d="M87.54 30.996a29.949 29.949 0 0 0-27.366-17.769c-16.54 0-29.947 13.408-29.947 29.947 0 16.54 13.408 29.947 29.947 29.947a29.949 29.949 0 0 0 27.33-17.686 2.773 2.773 0 0 0-5.06-2.273 24.404 24.404 0 0 1-22.27 14.413c-13.476 0-24.401-10.925-24.401-24.401 0-13.476 10.925-24.401 24.4-24.401 9.73 0 18.41 5.746 22.301 14.48a2.773 2.773 0 1 0 5.066-2.257z"/>
            <path d="M68.947 43.174l-16.802 8.401a2.773 2.773 0 0 0-5.28 1.185v3.169c0 2.061 2.168 3.402 4.012 2.48l25.51-12.755c2.044-1.022 2.044-3.938 0-4.96l-25.51-12.755c-1.844-.922-4.013.419-4.013 2.48v3.278a2.773 2.773 0 0 0 5.321 1.096l16.762 8.38z"/>
        </g>
        <g fill="#F5634A">
            <path d="M72.45 15.852a29.848 29.848 0 0 0-12.276-2.625c-4.19 0-8.265.863-12.023 2.512a30.048 30.048 0 0 0-12.39 10.088 29.819 29.819 0 0 0-5.534 17.347 29.818 29.818 0 0 0 5.488 17.283 30.052 30.052 0 0 0 12.187 10.041 29.848 29.848 0 0 0 12.272 2.623c4.26 0 8.398-.892 12.207-2.594a2.773 2.773 0 1 0-2.263-5.063 24.304 24.304 0 0 1-9.944 2.111c-3.496 0-6.883-.734-9.997-2.135a24.507 24.507 0 0 1-9.935-8.187 24.273 24.273 0 0 1-4.47-14.08c0-5.14 1.59-10.034 4.507-14.13a24.503 24.503 0 0 1 10.1-8.226 24.307 24.307 0 0 1 9.795-2.044c3.497 0 6.885.734 10.001 2.136a2.773 2.773 0 1 0 2.276-5.057z"/>
            <path d="M55.101 50.111a2.773 2.773 0 1 0 2.483 4.959l18.805-9.416c2.042-1.023 2.042-3.937 0-4.96l-19.41-9.719a2.773 2.773 0 1 0-2.483 4.96l14.459 7.24L55.1 50.11z"/>
        </g>
        <g fill="#FF9C5B">
            <path d="M48.15 15.74a30.048 30.048 0 0 0-12.39 10.087 29.819 29.819 0 0 0-5.533 17.347 29.818 29.818 0 0 0 5.488 17.283 30.052 30.052 0 0 0 12.187 10.041 2.773 2.773 0 1 0 2.275-5.058 24.507 24.507 0 0 1-9.935-8.187 24.273 24.273 0 0 1-4.47-14.08c0-5.14 1.59-10.034 4.507-14.13a24.503 24.503 0 0 1 10.1-8.226 2.773 2.773 0 0 0-2.228-5.078zM61.386 47.017a2.773 2.773 0 1 0 2.5 4.95l12.511-6.318c2.031-1.025 2.031-3.925 0-4.95l-12.755-6.441a2.773 2.773 0 0 0-2.5 4.95l7.854 3.966-7.61 3.843z"/>
        </g>
        <g fill="#FAD089">
            <path d="M34.06 28.505a29.82 29.82 0 0 0-3.833 14.669 29.82 29.82 0 0 0 3.814 14.634 2.773 2.773 0 1 0 4.836-2.713 24.275 24.275 0 0 1-3.104-11.921c0-4.248 1.084-8.332 3.12-11.949a2.773 2.773 0 1 0-4.833-2.72zM69.035 43.212a2.773 2.773 0 1 0 2.546 4.926l4.84-2.5c2-1.034 2-3.894 0-4.927l-4.992-2.58a2.773 2.773 0 0 0-2.546 4.927l.225.116-.073.038z"/>
        </g>
        <g>
            <path fill="#000" d="M108.213 39.176c-4.577 0-7.426-3.362-7.426-8.769 0-5.406 2.85-8.78 7.415-8.78 3.468 0 6.27 2.3 6.725 5.5h-1.623c-.49-2.383-2.569-4.017-5.102-4.017-3.527 0-5.78 2.837-5.78 7.297 0 4.46 2.242 7.286 5.791 7.286 2.604 0 4.624-1.447 5.091-3.666h1.623c-.479 3.094-3.14 5.15-6.714 5.15zm12.252-17.199v10.906c0 2.826 1.88 4.775 4.927 4.775 3.047 0 4.927-1.95 4.927-4.775V21.977h1.6v11.01c0 3.656-2.499 6.143-6.527 6.143-4.028 0-6.515-2.487-6.515-6.142v-11.01h1.588zm26.227 15.401v1.448h-10.03V21.977h1.6v15.401h8.43zm7.593 1.448h-1.588v-15.4h-5.652v-1.449h12.89v1.448h-5.65v15.401zm10.85-16.849v10.906c0 2.826 1.88 4.775 4.927 4.775 3.048 0 4.927-1.95 4.927-4.775V21.977h1.6v11.01c0 3.656-2.499 6.143-6.527 6.143-4.028 0-6.515-2.487-6.515-6.142v-11.01h1.588zm17.797 1.425V30.5h4.309c2.44 0 3.876-1.296 3.876-3.55 0-2.207-1.494-3.55-3.946-3.55h-4.239zm0 8.523v6.901h-1.6V21.977h6.037c3.281 0 5.383 1.927 5.383 4.928 0 2.382-1.355 4.168-3.608 4.764l4.087 7.157h-1.869l-3.876-6.9h-4.554zm24.301 5.453v1.448h-10.182V21.977h10.182v1.448h-8.582v6.06h8.15v1.425h-8.15v6.468h8.582z"/>
            <path fill="#292A2A" d="M101.414 57.726h3.343c.086 1.003 1.09 1.643 2.541 1.643 1.31 0 2.207-.63 2.207-1.538 0-.764-.602-1.175-2.178-1.49l-1.815-.364c-2.522-.477-3.821-1.853-3.821-4.021 0-2.694 2.159-4.462 5.483-4.462 3.23 0 5.465 1.748 5.522 4.3h-3.239c-.076-.975-1.003-1.654-2.235-1.654s-2.044.583-2.044 1.5c0 .755.61 1.194 2.063 1.481l1.777.344c2.723.525 3.945 1.758 3.945 3.945 0 2.876-2.197 4.615-5.808 4.615-3.487 0-5.684-1.643-5.741-4.3zm25.432 4.299c-4.127 0-6.668-2.77-6.668-7.27s2.531-7.26 6.668-7.26c3.468 0 6.095 2.311 6.2 5.435h-3.372c-.182-1.5-1.319-2.513-2.828-2.513-1.92 0-3.096 1.644-3.096 4.328 0 2.694 1.176 4.356 3.105 4.356 1.51 0 2.637-.974 2.838-2.455h3.362c-.114 3.153-2.675 5.379-6.21 5.379zm17.465-11.512v3.84h2.073c1.29 0 2.054-.716 2.054-1.91 0-1.175-.812-1.93-2.064-1.93h-2.063zm0 6.315v4.824h-3.507V47.867h6.067c3.22 0 5.149 1.7 5.149 4.547 0 1.691-.84 3.239-2.35 3.898l2.751 5.34h-3.936l-2.36-4.824h-1.814zm25.164 2.006v2.818h-9.448V47.867h9.448v2.818h-5.942v2.751h5.589v2.58h-5.589v2.818h5.942zm17.656 0v2.818h-9.448V47.867h9.448v2.818h-5.942v2.751h5.589v2.58h-5.59v2.818h5.943zm11.532 2.818h-3.324V47.867h2.799l5.741 7.757h.182v-7.757h3.324v13.785h-2.78l-5.76-7.834h-.182v7.834z"/>
        </g>
        <path fill="#000" d="M40.096 87.528c-.736-.821-1.776-1.232-3.12-1.232-1.11 0-1.917.21-2.424.632-.507.421-.76.99-.76 1.704 0 .363.064.664.192.904s.328.445.6.616c.272.17.616.315 1.032.432.416.117.917.24 1.504.368.608.128 1.16.27 1.656.424.496.155.917.35 1.264.584.347.235.613.523.8.864.187.341.28.763.28 1.264s-.099.939-.296 1.312a2.637 2.637 0 0 1-.832.936c-.357.25-.784.44-1.28.568a6.629 6.629 0 0 1-1.656.192c-1.77 0-3.27-.565-4.496-1.696l.432-.656c.48.501 1.067.899 1.76 1.192.693.293 1.472.44 2.336.44.992 0 1.768-.181 2.328-.544.56-.363.84-.912.84-1.648 0-.373-.075-.69-.224-.952a2.013 2.013 0 0 0-.664-.68 4.42 4.42 0 0 0-1.112-.496c-.448-.139-.97-.272-1.568-.4a17.957 17.957 0 0 1-1.608-.408 4.242 4.242 0 0 1-1.168-.544 2.184 2.184 0 0 1-.712-.792c-.16-.31-.24-.699-.24-1.168 0-.512.099-.965.296-1.36.197-.395.472-.728.824-1a3.678 3.678 0 0 1 1.264-.616 5.992 5.992 0 0 1 1.632-.208c.736 0 1.392.11 1.968.328a4.645 4.645 0 0 1 1.568 1l-.416.64zM42.928 97v-8.32h.8V97h-.8zm0-10.208V85.32h.8v1.472h-.8zM58.464 97h-.8v-4.64c0-1.056-.163-1.835-.488-2.336-.325-.501-.824-.752-1.496-.752-.341 0-.667.064-.976.192a2.96 2.96 0 0 0-.848.536c-.256.23-.477.501-.664.816a4.297 4.297 0 0 0-.44 1.048V97h-.8v-4.64c0-1.067-.16-1.848-.48-2.344-.32-.496-.816-.744-1.488-.744-.341 0-.664.061-.968.184a2.854 2.854 0 0 0-.84.528 3.79 3.79 0 0 0-.68.816 3.95 3.95 0 0 0-.456 1.048V97h-.8v-8.32h.752v1.984c.341-.672.79-1.195 1.344-1.568a3.224 3.224 0 0 1 1.84-.56c.704 0 1.275.208 1.712.624.437.416.699.96.784 1.632.79-1.504 1.877-2.256 3.264-2.256.907 0 1.555.323 1.944.968.39.645.584 1.55.584 2.712V97zm6.48.16c-.715 0-1.352-.19-1.912-.568a4.638 4.638 0 0 1-1.352-1.384v5.2h-.8V88.68h.736v1.664a4.057 4.057 0 0 1 1.352-1.304 3.44 3.44 0 0 1 1.8-.504c.576 0 1.11.123 1.6.368s.912.568 1.264.968.627.861.824 1.384c.197.523.296 1.056.296 1.6 0 .576-.09 1.125-.272 1.648-.181.523-.44.981-.776 1.376a3.706 3.706 0 0 1-1.208.936c-.47.23-.987.344-1.552.344zm-.192-.72c.48 0 .917-.101 1.312-.304.395-.203.73-.472 1.008-.808.277-.336.49-.72.64-1.152.15-.432.224-.872.224-1.32a3.69 3.69 0 0 0-.968-2.512 3.533 3.533 0 0 0-1.064-.792 2.922 2.922 0 0 0-1.296-.296c-.288 0-.595.061-.92.184a3.94 3.94 0 0 0-.92.496 3.462 3.462 0 0 0-.736.712c-.203.267-.32.55-.352.848v2.736a4.086 4.086 0 0 0 1.248 1.568c.267.203.555.36.864.472.31.112.63.168.96.168zm5.984-11.12h.816v10.032c0 .31.088.555.264.736.176.181.419.272.728.272a2.726 2.726 0 0 0 .88-.16l.16.64a3.34 3.34 0 0 1-.672.184 3.97 3.97 0 0 1-.688.072c-.448 0-.808-.136-1.08-.408-.272-.272-.408-.637-.408-1.096V85.32zM74.816 97v-8.32h.8V97h-.8zm0-10.208V85.32h.8v1.472h-.8zM78.496 97v-7.664h-1.168v-.656h1.168v-.272c0-1.024.208-1.821.624-2.392.416-.57.992-.856 1.728-.856.32 0 .63.048.928.144.299.096.544.224.736.384l-.288.576a2.09 2.09 0 0 0-1.232-.4c-.544 0-.963.216-1.256.648-.293.432-.44 1.059-.44 1.88v.288h2.368v.656h-2.368V97h-.8zm5.28 2.816c.053.01.133.016.24.016.107 0 .205-.005.296-.016a.794.794 0 0 0 .264-.08.602.602 0 0 0 .176-.136c.053-.059.128-.179.224-.36s.219-.448.368-.8c.15-.352.352-.832.608-1.44l-3.712-8.32h.832l3.312 7.536 3.088-7.536h.784l-4.56 10.944a1.41 1.41 0 0 1-.568.696c-.261.165-.616.248-1.064.248h-.136a.776.776 0 0 1-.152-.016v-.736zm20.368-5.76c0 .416-.08.803-.24 1.16a2.968 2.968 0 0 1-1.632 1.56c-.373.15-.768.224-1.184.224h-5.312V85.64h5.296c.395 0 .752.085 1.072.256.32.17.592.392.816.664.224.272.397.581.52.928.123.347.184.696.184 1.048 0 .576-.144 1.104-.432 1.584-.288.48-.688.832-1.2 1.056.65.192 1.165.552 1.544 1.08s.568 1.128.568 1.8zm-.816-.112c0-.299-.053-.59-.16-.872a2.428 2.428 0 0 0-.448-.752 2.161 2.161 0 0 0-.68-.52 1.884 1.884 0 0 0-.84-.192h-4.608v4.656h4.496c.32 0 .616-.064.888-.192s.507-.301.704-.52c.197-.219.355-.467.472-.744.117-.277.176-.565.176-.864zm-6.736-7.568v4.544h4.16c.31 0 .592-.064.848-.192s.477-.296.664-.504a2.33 2.33 0 0 0 .44-.728c.107-.277.16-.56.16-.848 0-.31-.05-.6-.152-.872a2.402 2.402 0 0 0-.416-.72 1.978 1.978 0 0 0-.632-.496 1.799 1.799 0 0 0-.816-.184h-4.256zm12.112 10.784c-1.77 0-2.656-1.227-2.656-3.68v-4.8h.8v4.688c0 2.048.699 3.072 2.096 3.072.352 0 .693-.061 1.024-.184a3.597 3.597 0 0 0 1.688-1.304c.219-.31.392-.65.52-1.024V88.68h.8v7.2c0 .267.112.4.336.4V97a.742.742 0 0 1-.144.016h-.096a.88.88 0 0 1-.568-.2.653.653 0 0 1-.248-.536v-1.248a3.96 3.96 0 0 1-1.496 1.568c-.635.373-1.32.56-2.056.56zm6.816-.16v-8.32h.8V97h-.8zm0-10.208V85.32h.8v1.472h-.8zm3.376-1.472h.816v10.032c0 .31.088.555.264.736.176.181.419.272.728.272a2.726 2.726 0 0 0 .88-.16l.16.64a3.34 3.34 0 0 1-.672.184 3.97 3.97 0 0 1-.688.072c-.448 0-.808-.136-1.08-.408-.272-.272-.408-.637-.408-1.096V85.32zm7.504 11.84c-.576 0-1.11-.12-1.6-.36s-.915-.56-1.272-.96a4.398 4.398 0 0 1-.832-1.376 4.475 4.475 0 0 1-.296-1.608c0-.576.096-1.125.288-1.648a4.4 4.4 0 0 1 .8-1.376c.341-.395.744-.71 1.208-.944a3.337 3.337 0 0 1 1.528-.352c.363 0 .704.053 1.024.16a4.063 4.063 0 0 1 2.224 1.792V85.32h.8v10.56c0 .267.112.4.336.4V97c-.064.01-.117.019-.16.024a1.031 1.031 0 0 1-.128.008.706.706 0 0 1-.544-.248c-.15-.165-.224-.339-.224-.52v-.928a3.841 3.841 0 0 1-1.368 1.328 3.51 3.51 0 0 1-1.784.496zm.144-.72c.288 0 .597-.059.928-.176.33-.117.637-.28.92-.488a3.55 3.55 0 0 0 .728-.712c.203-.267.32-.555.352-.864v-2.736a3.279 3.279 0 0 0-.504-.856 3.716 3.716 0 0 0-1.64-1.176 2.69 2.69 0 0 0-.928-.176c-.48 0-.917.104-1.312.312-.395.208-.73.48-1.008.816-.277.336-.49.72-.64 1.152-.15.432-.224.877-.224 1.336 0 .48.085.933.256 1.36.17.427.408.805.712 1.136.304.33.656.592 1.056.784.4.192.835.288 1.304.288zm6.272.56v-8.32h.8V97h-.8zm0-10.208V85.32h.8v1.472h-.8zM142.928 97h-.8v-4.64c0-1.077-.152-1.861-.456-2.352-.304-.49-.787-.736-1.448-.736-.352 0-.701.064-1.048.192a3.55 3.55 0 0 0-.968.544c-.299.235-.56.51-.784.824-.224.315-.39.653-.496 1.016V97h-.8v-8.32h.752v1.984a3.99 3.99 0 0 1 1.48-1.544c.315-.187.648-.33 1-.432a3.913 3.913 0 0 1 1.088-.152c.907 0 1.547.317 1.92.952s.56 1.544.56 2.728V97zm5.776.128c-.576 0-1.104-.12-1.584-.36s-.893-.56-1.24-.96a4.59 4.59 0 0 1-.816-1.368 4.368 4.368 0 0 1-.296-1.584c0-.565.093-1.11.28-1.632.187-.523.45-.984.792-1.384.341-.4.75-.717 1.224-.952.475-.235 1-.352 1.576-.352.725 0 1.357.19 1.896.568.539.379.995.84 1.368 1.384V88.68h.736v8.48c0 .565-.107 1.061-.32 1.488a3.108 3.108 0 0 1-.856 1.064 3.737 3.737 0 0 1-1.248.64 5.125 5.125 0 0 1-1.496.216c-.48 0-.912-.045-1.296-.136a3.872 3.872 0 0 1-1.016-.384 3.359 3.359 0 0 1-.784-.608c-.23-.24-.43-.504-.6-.792l.544-.368c.33.565.779.979 1.344 1.24a4.257 4.257 0 0 0 1.808.392c.427 0 .83-.059 1.208-.176.379-.117.71-.29.992-.52.283-.23.507-.515.672-.856.165-.341.248-.741.248-1.2v-1.824a3.84 3.84 0 0 1-1.36 1.304 3.51 3.51 0 0 1-1.776.488zm.192-.688c.352 0 .696-.067 1.032-.2.336-.133.64-.307.912-.52.272-.213.496-.453.672-.72a2.04 2.04 0 0 0 .328-.8v-2.736a3.596 3.596 0 0 0-1.24-1.584 3.629 3.629 0 0 0-.88-.456 2.821 2.821 0 0 0-.952-.168c-.501 0-.95.107-1.344.32-.395.213-.728.49-1 .832-.272.341-.48.728-.624 1.16a4.1 4.1 0 0 0-.216 1.304c0 .48.085.933.256 1.36.17.427.405.805.704 1.136.299.33.65.592 1.056.784a2.99 2.99 0 0 0 1.296.288zm18.08-10.064h-4.16V97H162V86.376h-4.16v-.736h9.136v.736zm3.232 10.784c-.587 0-1.13-.115-1.632-.344a4.032 4.032 0 0 1-1.304-.944 4.501 4.501 0 0 1-1.176-3.064 4.397 4.397 0 0 1 1.168-3.016c.363-.39.792-.696 1.288-.92a3.86 3.86 0 0 1 1.608-.336c.587 0 1.13.115 1.632.344.501.23.933.539 1.296.928.363.39.645.843.848 1.36.203.517.304 1.064.304 1.64v.2c0 .08-.005.13-.016.152h-7.296a3.798 3.798 0 0 0 1.064 2.4c.293.299.632.533 1.016.704.384.17.795.256 1.232.256.288 0 .57-.04.848-.12.277-.08.536-.19.776-.328.24-.139.453-.307.64-.504s.333-.413.44-.648l.704.192c-.117.299-.29.573-.52.824a3.52 3.52 0 0 1-.8.648 4.09 4.09 0 0 1-1 .424 4.142 4.142 0 0 1-1.12.152zm3.264-4.64a3.772 3.772 0 0 0-.328-1.344 3.588 3.588 0 0 0-.72-1.048 3.23 3.23 0 0 0-1.016-.688 3.082 3.082 0 0 0-1.232-.248c-.437 0-.848.083-1.232.248a3.23 3.23 0 0 0-1.72 1.744 4.05 4.05 0 0 0-.312 1.336h6.56zm4.576 4.64a2.84 2.84 0 0 1-1.944-.744 2.411 2.411 0 0 1-.584-.816 2.491 2.491 0 0 1-.208-1.016c0-.363.085-.693.256-.992.17-.299.408-.557.712-.776.304-.219.67-.39 1.096-.512a5.083 5.083 0 0 1 1.408-.184c.448 0 .899.04 1.352.12.453.08.861.19 1.224.328v-.816c0-.79-.224-1.416-.672-1.88-.448-.464-1.056-.696-1.824-.696a3.66 3.66 0 0 0-1.288.256 6.6 6.6 0 0 0-1.384.736l-.304-.544c1.067-.725 2.08-1.088 3.04-1.088 1.003 0 1.792.29 2.368.872.576.581.864 1.384.864 2.408v4.064c0 .267.117.4.352.4V97a1.592 1.592 0 0 1-.32.032.651.651 0 0 1-.512-.216.904.904 0 0 1-.224-.52v-.688a3.741 3.741 0 0 1-1.472 1.152c-.597.267-1.243.4-1.936.4zm.16-.64c.619 0 1.187-.117 1.704-.352.517-.235.915-.544 1.192-.928.17-.224.256-.437.256-.64v-1.472a6.443 6.443 0 0 0-1.2-.336 7.325 7.325 0 0 0-1.296-.112c-.416 0-.795.045-1.136.136a3.02 3.02 0 0 0-.88.376c-.245.16-.435.355-.568.584-.133.23-.2.483-.2.76s.053.539.16.784c.107.245.256.456.448.632s.419.315.68.416c.261.101.541.152.84.152zm18.608.48h-.8v-4.64c0-1.056-.163-1.835-.488-2.336-.325-.501-.824-.752-1.496-.752-.341 0-.667.064-.976.192a2.96 2.96 0 0 0-.848.536c-.256.23-.477.501-.664.816a4.297 4.297 0 0 0-.44 1.048V97h-.8v-4.64c0-1.067-.16-1.848-.48-2.344-.32-.496-.816-.744-1.488-.744-.341 0-.664.061-.968.184a2.854 2.854 0 0 0-.84.528 3.79 3.79 0 0 0-.68.816 3.95 3.95 0 0 0-.456 1.048V97h-.8v-8.32h.752v1.984c.341-.672.79-1.195 1.344-1.568a3.224 3.224 0 0 1 1.84-.56c.704 0 1.275.208 1.712.624.437.416.699.96.784 1.632.79-1.504 1.877-2.256 3.264-2.256.907 0 1.555.323 1.944.968.39.645.584 1.55.584 2.712V97zm5.056.16c-.64 0-1.253-.107-1.84-.32a4.254 4.254 0 0 1-1.536-.96l.4-.544c.448.405.912.704 1.392.896.48.192 1.008.288 1.584.288.725 0 1.31-.152 1.752-.456.443-.304.664-.728.664-1.272 0-.256-.056-.472-.168-.648a1.344 1.344 0 0 0-.504-.448 4.159 4.159 0 0 0-.832-.328c-.33-.096-.715-.197-1.152-.304-.47-.107-.877-.213-1.224-.32a3.29 3.29 0 0 1-.856-.384 1.481 1.481 0 0 1-.504-.544c-.112-.213-.168-.485-.168-.816 0-.416.08-.779.24-1.088.16-.31.381-.565.664-.768.283-.203.608-.355.976-.456.368-.101.76-.152 1.176-.152.65 0 1.227.11 1.728.328.501.219.89.499 1.168.84l-.448.432a2.538 2.538 0 0 0-1.08-.72 4.134 4.134 0 0 0-1.416-.24c-.31 0-.6.032-.872.096a2.1 2.1 0 0 0-.712.304 1.498 1.498 0 0 0-.48.536 1.618 1.618 0 0 0-.176.776c0 .245.04.443.12.592.08.15.208.277.384.384.176.107.403.2.68.28.277.08.608.168.992.264.523.128.987.25 1.392.368.405.117.744.261 1.016.432.272.17.48.373.624.608.144.235.216.533.216.896 0 .747-.29 1.341-.872 1.784-.581.443-1.357.664-2.328.664zm4.88-.16v-1.36h.704V97h-.704z"/>
    </g>
</svg>
