<?xml version="1.0" encoding="UTF-8"?>
<svg width="196px" height="60px" viewBox="0 0 196 60" version="1.1" xmlns="http://www.w3.org/2000/svg" xmlns:xlink="http://www.w3.org/1999/xlink">
    <!-- Generator: Sketch 55.1 (78136) - https://sketchapp.com -->
    <title>Brand/Logotype_Horizonral/On Dark</title>
    <desc>Created with Sketch.</desc>
    <g id="Brand/Logotype_Horizonral/On-Dark" stroke="none" stroke-width="1" fill="none" fill-rule="evenodd">
        <g id="Color-Logo" transform="translate(3.000000, 5.000000)" fill-rule="nonzero">
            <g id="Teal" fill="#3B8183">
                <path d="M50.1767663,13.7958738 C50.7502403,15.0827684 50.1718986,16.5908951 48.885004,17.1643691 C47.5981094,17.7378431 46.0899827,17.1595014 45.5165087,15.8726068 C41.9356922,7.83713583 33.9510998,2.55102041 25,2.55102041 C12.6017709,2.55102041 2.55102041,12.6017709 2.55102041,25 C2.55102041,37.3982291 12.6017709,47.4489796 25,47.4489796 C33.926762,47.4489796 41.8936176,42.1916768 45.4888772,34.1891472 C46.0662506,32.9039974 47.576124,32.3302312 48.8612738,32.9076045 C50.1464236,33.4849779 50.7201899,34.9948512 50.1428165,36.2800011 C45.7316001,46.0987328 35.9538783,52.5510204 25,52.5510204 C9.78399159,52.5510204 -2.55102041,40.2160084 -2.55102041,25 C-2.55102041,9.78399159 9.78399159,-2.55102041 25,-2.55102041 C35.983787,-2.55102041 45.7832079,3.93658309 50.1767663,13.7958738 Z M52.2605804,29.0126413 C52.0569903,30.4067436 50.7618047,31.3718444 49.3677024,31.1682543 C47.9736001,30.9646641 47.0084994,29.6694785 47.2120895,28.2753763 C47.3694212,27.1980328 47.4489796,26.1044302 47.4489796,25 C47.4489796,24.0038508 47.3842566,23.0164628 47.2560981,22.0417942 C47.0724252,20.6449283 48.0559124,19.3636484 49.4527783,19.1799755 C50.8496442,18.9963026 52.1309241,19.9797898 52.314597,21.3766557 C52.4717333,22.5717051 52.5510204,23.7812784 52.5510204,25 C52.5510204,26.3513534 52.4535368,27.6913549 52.2605804,29.0126413 Z" id="Shape"></path>
                <path d="M20.8734324,36.7346939 C20.8734324,38.1435835 19.7313016,39.2857143 18.3224119,39.2857143 L15.3061224,39.2857143 C13.4097397,39.2857143 12.1763323,37.2900191 13.0244204,35.5938429 L24.7591143,12.1244551 C25.6992272,10.2442292 28.3824054,10.2442292 29.3225183,12.1244551 L41.0572122,35.5938429 C41.9053004,37.2900191 40.6718929,39.2857143 38.7755102,39.2857143 L35.8596796,39.2857143 C34.4507899,39.2857143 33.3086592,38.1435835 33.3086592,36.7346939 C33.3086592,35.7157105 33.9061016,34.8362673 34.7698074,34.4275433 L27.0408163,18.9695612 L19.3303343,34.3905252 C20.2379695,34.7813008 20.8734324,35.6837872 20.8734324,36.7346939 Z M29.8181765,34.1836735 C31.2270662,34.1836735 32.3691969,35.3258042 32.3691969,36.7346939 C32.3691969,38.1435835 31.2270662,39.2857143 29.8181765,39.2857143 L24.7899257,39.2857143 C23.3810361,39.2857143 22.2389053,38.1435835 22.2389053,36.7346939 C22.2389053,35.3258042 23.3810361,34.1836735 24.7899257,34.1836735 L29.8181765,34.1836735 Z" id="Shape" transform="translate(27.040816, 25.000000) rotate(-270.000000) translate(-27.040816, -25.000000) "></path>
            </g>
            <g id="Red" fill="#EE0028">
                <path d="M50.1767663,13.7958738 C45.7832079,3.93658309 35.983787,-2.55102041 25,-2.55102041 C9.78399159,-2.55102041 -2.55102041,9.78399159 -2.55102041,25 C-2.55102041,40.2160084 9.78399159,52.5510204 25,52.5510204 C35.9538783,52.5510204 45.7316001,46.0987328 50.1428165,36.2800011 C50.7201899,34.9948512 50.1464236,33.4849779 48.8612738,32.9076045 C47.576124,32.3302312 46.0662506,32.9039974 45.4888772,34.1891472 C41.8936176,42.1916768 33.926762,47.4489796 25,47.4489796 C12.6017709,47.4489796 2.55102041,37.3982291 2.55102041,25 C2.55102041,12.6017709 12.6017709,2.55102041 25,2.55102041 C33.9510998,2.55102041 41.9356922,7.83713583 45.5165087,15.8726068 C46.0899827,17.1595014 47.5981094,17.7378431 48.885004,17.1643691 C50.1718986,16.5908951 50.7502403,15.0827684 50.1767663,13.7958738 Z" id="Path"></path>
                <path d="M27.0408163,18.9695612 L34.7698074,34.4275433 C33.9061016,34.8362673 33.3086592,35.7157105 33.3086592,36.7346939 C33.3086592,38.1435835 34.4507899,39.2857143 35.8596796,39.2857143 L38.7755102,39.2857143 C40.6718929,39.2857143 41.9053004,37.2900191 41.0572122,35.5938429 L29.3225183,12.1244551 C28.3824054,10.2442292 25.6992272,10.2442292 24.7591143,12.1244551 L13.0244204,35.5938429 C12.1763323,37.2900191 13.4097397,39.2857143 15.3061224,39.2857143 L18.3224119,39.2857143 C19.7313016,39.2857143 20.8734324,38.1435835 20.8734324,36.7346939 C20.8734324,35.6837872 20.2379695,34.7813008 19.3303343,34.3905252 L27.0408163,18.9695612 Z" id="Path" transform="translate(27.040816, 25.000000) rotate(-270.000000) translate(-27.040816, -25.000000) "></path>
            </g>
            <g id="Orange" fill="#F5634A">
                <path d="M36.2945146,-0.136291031 C32.7731303,-1.7207842 28.942659,-2.55102041 25,-2.55102041 C21.1448691,-2.55102041 17.3965434,-1.75727106 13.9387464,-0.239946721 C9.37221646,1.76390339 5.42864888,4.98137699 2.53947441,9.04089686 C-0.752836476,13.6668555 -2.55102041,19.2016645 -2.55102041,25 C-2.55102041,30.7735616 -0.768213742,36.2861129 2.49804527,40.900732 C5.34182571,44.9184671 9.21748978,48.1178381 13.7100226,50.1383321 C17.230176,51.7215034 21.0590473,52.5510204 25,52.5510204 C28.9185808,52.5510204 32.7264695,51.7309035 36.2304529,50.1650178 C37.5167437,49.5901908 38.093499,48.0814568 37.518672,46.795166 C36.943845,45.5088752 35.4351109,44.9321198 34.1488201,45.5069468 C31.2966389,46.7815503 28.1976951,47.4489796 25,47.4489796 C21.7840756,47.4489796 18.6680922,46.7739082 15.802733,45.4852274 C12.1427643,43.8391748 8.98159862,41.2296242 6.66246937,37.953124 C4.00134266,34.1934448 2.55102041,29.7089565 2.55102041,25 C2.55102041,20.2708625 4.01385446,15.7682601 6.69624646,11.999286 C9.05239826,8.68870541 12.2688537,6.06446725 15.9888858,4.43207092 C18.8034314,3.1970133 21.8540062,2.55102041 25,2.55102041 C28.2173147,2.55102041 31.3345975,3.22667644 34.2009598,4.51643386 C35.4857743,5.09455305 36.9959804,4.5216633 37.5740996,3.2368488 C38.1522188,1.9520343 37.5793291,0.441828158 36.2945146,-0.136291031 Z" id="Path"></path>
                <path d="M36.368379,34.3746251 C36.9992035,35.6343992 38.5318364,36.1442635 39.7916104,35.5134391 C41.0513844,34.8826146 41.5612488,33.3499817 40.9304243,32.0902077 L32.2673582,14.7898231 C31.3267526,12.9114075 28.6459184,12.9114075 27.7053128,14.7898231 L18.7634532,32.646966 C18.1326288,33.90674 18.6424931,35.4393729 19.9022672,36.0701974 C21.1620412,36.7010218 22.6946741,36.1911575 23.3254985,34.9313834 L29.9863355,21.6295064 L36.368379,34.3746251 Z" id="Path" transform="translate(29.846939, 24.860882) rotate(-270.000000) translate(-29.846939, -24.860882) "></path>
            </g>
            <g id="Light-Orange" transform="translate(0.000000, 2.040816)" fill="#FF9C5B">
                <path d="M13.9387464,-2.28076305 C9.37221646,-0.276912938 5.42864888,2.94056067 2.53947441,7.00008054 C-0.752836476,11.6260391 -2.55102041,17.1608482 -2.55102041,22.9591837 C-2.55102041,28.7327453 -0.768213742,34.2452966 2.49804527,38.8599156 C5.34182571,42.8776507 9.21748978,46.0770217 13.7100226,48.0975158 C14.994942,48.6754018 16.5050442,48.102238 17.0829302,46.8173186 C17.6608162,45.5323992 17.0876524,44.0222971 15.802733,43.444411 C12.1427643,41.7983585 8.98159862,39.1888079 6.66246937,35.9123077 C4.00134266,32.1526285 2.55102041,27.6681402 2.55102041,22.9591837 C2.55102041,18.2300461 4.01385446,13.7274438 6.69624646,9.95846972 C9.05239826,6.64788909 12.2688537,4.02365092 15.9888858,2.39125459 C17.2790279,1.82512422 17.8659553,0.320318104 17.2998249,-0.969823943 C16.7336945,-2.25996599 15.2288884,-2.84689342 13.9387464,-2.28076305 Z" id="Path"></path>
                <path d="M36.5002119,29.6958404 C37.1352902,30.9534753 38.6696374,31.4581573 39.9272724,30.823079 C41.1849074,30.1880008 41.6895893,28.6536536 41.0545111,27.3960186 L35.2418792,15.8853595 C34.2985061,14.0172135 31.6309531,14.0172135 30.6875801,15.8853595 L24.7618155,27.6200534 C24.1267372,28.8776884 24.6314192,30.4120356 25.8890541,31.0471138 C27.1466891,31.6821921 28.6810363,31.1775101 29.3161146,29.9198751 L32.9647296,22.694583 L36.5002119,29.6958404 Z" id="Path" transform="translate(32.908163, 22.902893) rotate(-270.000000) translate(-32.908163, -22.902893) "></path>
            </g>
            <g id="Yellow-Orange" transform="translate(0.000000, 10.204082)" fill="#FAD089">
                <path d="M0.975475092,1.30053135 C-1.32475299,5.38743458 -2.55102041,10.005546 -2.55102041,14.7959184 C-2.55102041,19.5736994 -1.33120208,24.1802199 0.957562925,28.2594306 C1.64696147,29.488129 3.20188626,29.9253179 4.43058466,29.2359194 C5.65928305,28.5465208 6.09647196,26.991596 5.40707342,25.7628976 C3.54342042,22.4413539 2.55102041,18.6936556 2.55102041,14.7959184 C2.55102041,10.887923 3.54866442,7.13080509 5.42166367,3.80297569 C6.11269459,2.57519462 5.67757262,1.01969016 4.44979155,0.328659235 C3.22201048,-0.362371687 1.66650601,0.0727502817 0.975475092,1.30053135 Z" id="Path"></path>
                <path d="M36.5501941,18.0874214 C37.1970098,19.3390602 38.7360112,19.8293661 39.98765,19.1825504 C41.2392887,18.5357347 41.7295947,16.9967333 41.082779,15.7450946 L38.7819362,11.2927846 C37.8311687,9.45297528 35.200119,9.45297528 34.2493514,11.2927846 L31.8764047,15.8846213 C31.229589,17.1362601 31.7198949,18.6752615 32.9715337,19.3220772 C34.2231724,19.9688929 35.7621738,19.4785869 36.4089895,18.2269482 L36.5156438,18.0205638 L36.5501941,18.0874214 Z" id="Path" transform="translate(36.479592, 14.760132) rotate(-270.000000) translate(-36.479592, -14.760132) "></path>
            </g>
        </g>
        <g id="Group" transform="translate(64.000000, 5.000000)" fill-rule="nonzero">
            <path d="M8.19628906,21.3222656 C3.98535156,21.3222656 1.36425781,18.2285156 1.36425781,13.2548828 C1.36425781,8.28125 3.98535156,5.17675781 8.18554688,5.17675781 C11.3759766,5.17675781 13.9541016,7.29296875 14.3730469,10.2363281 L12.8798828,10.2363281 C12.4287109,8.04492188 10.5166016,6.54101562 8.18554688,6.54101562 C4.94140625,6.54101562 2.86816406,9.15136719 2.86816406,13.2548828 C2.86816406,17.3583984 4.93066406,19.9580078 8.19628906,19.9580078 C10.5917969,19.9580078 12.4501953,18.6259766 12.8798828,16.5849609 L14.3730469,16.5849609 C13.9326172,19.4316406 11.4833984,21.3222656 8.19628906,21.3222656 Z M19.4673828,5.49902344 L19.4673828,15.5322266 C19.4673828,18.1318359 21.196875,19.9257812 24.0005859,19.9257812 C26.8042969,19.9257812 28.5337891,18.1318359 28.5337891,15.5322266 L28.5337891,5.49902344 L30.0054688,5.49902344 L30.0054688,15.6289062 C30.0054688,18.9912109 27.7066406,21.2792969 24.0005859,21.2792969 C20.2945313,21.2792969 18.0064453,18.9912109 18.0064453,15.6289062 L18.0064453,5.49902344 L19.4673828,5.49902344 Z M43.596875,19.6679688 L43.596875,21 L34.3693359,21 L34.3693359,5.49902344 L35.8410156,5.49902344 L35.8410156,19.6679688 L43.596875,19.6679688 Z M50.581836,21 L49.1208985,21 L49.1208985,6.83105469 L43.9216797,6.83105469 L43.9216797,5.49902344 L55.7810547,5.49902344 L55.7810547,6.83105469 L50.581836,6.83105469 L50.581836,21 Z M60.5638672,5.49902344 L60.5638672,15.5322266 C60.5638672,18.1318359 62.2933594,19.9257812 65.0970703,19.9257812 C67.9007813,19.9257812 69.6302735,18.1318359 69.6302735,15.5322266 L69.6302735,5.49902344 L71.1019531,5.49902344 L71.1019531,15.6289062 C71.1019531,18.9912109 68.803125,21.2792969 65.0970703,21.2792969 C61.3910156,21.2792969 59.1029297,18.9912109 59.1029297,15.6289062 L59.1029297,5.49902344 L60.5638672,5.49902344 Z M76.9375,6.80957031 L76.9375,13.3408203 L80.9013672,13.3408203 C83.1464844,13.3408203 84.4677735,12.1484375 84.4677735,10.0751953 C84.4677735,8.04492188 83.0927735,6.80957031 80.8369141,6.80957031 L76.9375,6.80957031 Z M76.9375,14.6513672 L76.9375,21 L75.4658203,21 L75.4658203,5.49902344 L81.0195313,5.49902344 C84.038086,5.49902344 85.9716797,7.27148438 85.9716797,10.0322266 C85.9716797,12.2236328 84.725586,13.8671875 82.6523438,14.4150391 L86.4121094,21 L84.6933594,21 L81.1269532,14.6513672 L76.9375,14.6513672 Z M99.2945313,19.6679688 L99.2945313,21 L89.9273438,21 L89.9273438,5.49902344 L99.2945313,5.49902344 L99.2945313,6.83105469 L91.3990235,6.83105469 L91.3990235,12.40625 L98.8970703,12.40625 L98.8970703,13.7167969 L91.3990235,13.7167969 L91.3990235,19.6679688 L99.2945313,19.6679688 Z" id="CULTURE" fill="#FFFFFF"></path>
            <path d="M1.94042969,38.3876953 L5.01660156,38.3876953 C5.09570312,39.3105469 6.01855469,39.8994141 7.35449219,39.8994141 C8.55859375,39.8994141 9.38476562,39.3193359 9.38476562,38.484375 C9.38476562,37.78125 8.83105469,37.4033203 7.38085937,37.1132812 L5.7109375,36.7792969 C3.390625,36.3398438 2.1953125,35.0742188 2.1953125,33.0791016 C2.1953125,30.6005859 4.18164062,28.9746094 7.24023438,28.9746094 C10.2109375,28.9746094 12.2675781,30.5830078 12.3203125,32.9296875 L9.34082031,32.9296875 C9.27050781,32.0332031 8.41796875,31.4091797 7.28417969,31.4091797 C6.15039062,31.4091797 5.40332031,31.9453125 5.40332031,32.7890625 C5.40332031,33.4833984 5.96582031,33.8876953 7.30175781,34.1513672 L8.93652344,34.4677734 C11.4414062,34.9511719 12.5664062,36.0849609 12.5664062,38.0976562 C12.5664062,40.7431641 10.5449219,42.3427734 7.22265625,42.3427734 C4.01464844,42.3427734 1.99316406,40.8310547 1.94042969,38.3876953 Z M25.3380861,42.3427734 C21.5412111,42.3427734 19.2033205,39.7939453 19.2033205,35.6542969 C19.2033205,31.5146484 21.5324221,28.9746094 25.3380861,28.9746094 C28.5285158,28.9746094 30.945508,31.1015625 31.0421877,33.9755859 L27.9396486,33.9755859 C27.7726564,32.5957031 26.726758,31.6640625 25.3380861,31.6640625 C23.5714846,31.6640625 22.4904299,33.1757812 22.4904299,35.6455078 C22.4904299,38.1240234 23.5714846,39.6533203 25.3468752,39.6533203 C26.7355471,39.6533203 27.7726564,38.7568359 27.9572268,37.3945312 L31.0509768,37.3945312 C30.945508,40.2949219 28.5900393,42.3427734 25.3380861,42.3427734 Z M41.4056644,31.7519531 L41.4056644,35.2851562 L43.312891,35.2851562 C44.4994144,35.2851562 45.2025394,34.6259766 45.2025394,33.5273438 C45.2025394,32.4462891 44.4554691,31.7519531 43.3041019,31.7519531 L41.4056644,31.7519531 Z M41.4056644,37.5615234 L41.4056644,42 L38.1800785,42 L38.1800785,29.3173828 L43.7611332,29.3173828 C46.7230473,29.3173828 48.4984379,30.8818359 48.4984379,33.5009766 C48.4984379,35.0566406 47.7250004,36.4804688 46.3363285,37.0869141 L48.8675785,42 L45.2464848,42 L43.0755863,37.5615234 L41.4056644,37.5615234 Z M64.5572271,39.4072266 L64.5572271,42 L55.8648443,42 L55.8648443,29.3173828 L64.5572271,29.3173828 L64.5572271,31.9101562 L59.0904303,31.9101562 L59.0904303,34.4414062 L64.2320318,34.4414062 L64.2320318,36.8144531 L59.0904303,36.8144531 L59.0904303,39.4072266 L64.5572271,39.4072266 Z M80.8005867,39.4072266 L80.8005867,42 L72.1082039,42 L72.1082039,29.3173828 L80.8005867,29.3173828 L80.8005867,31.9101562 L75.3337898,31.9101562 L75.3337898,34.4414062 L80.4753914,34.4414062 L80.4753914,36.8144531 L75.3337898,36.8144531 L75.3337898,39.4072266 L80.8005867,39.4072266 Z M91.4101572,42 L88.3515635,42 L88.3515635,29.3173828 L90.9267588,29.3173828 L96.2089853,36.4541016 L96.3759775,36.4541016 L96.3759775,29.3173828 L99.4345713,29.3173828 L99.4345713,42 L96.8769541,42 L91.5771494,34.7929688 L91.4101572,34.7929688 L91.4101572,42 Z" id="SCREEN" fill="#D5D5D5"></path>
        </g>
    </g>
</svg>