<?xml version="1.0" encoding="UTF-8"?>
<svg width="240px" height="120px" viewBox="0 0 240 120" version="1.1" xmlns="http://www.w3.org/2000/svg" xmlns:xlink="http://www.w3.org/1999/xlink">
    <!-- Generator: Sketch 55.1 (78136) - https://sketchapp.com -->
    <title>Brand/Logotype_Vertical/On Dark</title>
    <desc>Created with Sketch.</desc>
    <g id="Brand/Logotype_Vertical/On-Dark" stroke="none" stroke-width="1" fill="none" fill-rule="evenodd">
        <g id="Group-2" transform="translate(33.000000, 16.000000)" fill-rule="nonzero">
            <g id="Color-Logo">
                <g id="Teal" fill="#3B8183">
                    <path d="M53.8707614,14.811521 C54.4864543,16.1931563 53.8655353,17.8123107 52.4839,18.4280036 C51.1022647,19.0436965 49.4831103,18.4227775 48.8674173,17.0411422 C45.0229824,8.41410288 36.4505672,2.73882559 26.8404908,2.73882559 C13.5295087,2.73882559 2.73882559,13.5295087 2.73882559,26.8404908 C2.73882559,40.1514729 13.5295087,50.942156 26.8404908,50.942156 C36.4244377,50.942156 44.9778103,45.2978126 48.8377516,36.7061396 C49.457631,35.3263775 51.0786607,34.7103709 52.4584228,35.3302502 C53.8381849,35.9501296 54.4541916,37.5711593 53.8343122,38.9509214 C49.0983436,49.4925046 38.6007896,56.4198072 26.8404908,56.4198072 C10.5042854,56.4198072 -2.73882559,43.1766961 -2.73882559,26.8404908 C-2.73882559,10.5042854 10.5042854,-2.73882559 26.8404908,-2.73882559 C38.6329001,-2.73882559 49.1537508,4.22639289 53.8707614,14.811521 Z M56.1079851,31.1485413 C55.8894068,32.6452769 54.4988701,33.681428 53.0021345,33.4628497 C51.5053989,33.2442713 50.4692478,31.8537346 50.6878261,30.356999 C50.8567405,29.200342 50.942156,28.0262288 50.942156,26.8404908 C50.942156,25.7710055 50.8726681,24.7109263 50.7350747,23.664503 C50.5378798,22.1648003 51.593771,20.7891931 53.0934736,20.5919982 C54.5931763,20.3948034 55.9687835,21.4506945 56.1659784,22.9503972 C56.3346829,24.2334258 56.4198072,25.5320474 56.4198072,26.8404908 C56.4198072,28.2913304 56.3151468,29.7299823 56.1079851,31.1485413 Z" id="Shape"></path>
                    <path d="M22.4101268,39.4390885 C22.4101268,40.9517001 21.1839128,42.1779141 19.6713012,42.1779141 L16.4329535,42.1779141 C14.3969598,42.1779141 13.0727494,40.0352966 13.9832735,38.2142485 L26.5818712,13.017053 C27.5911949,10.9984056 30.4719077,10.9984056 31.4812314,13.017053 L44.0798291,38.2142485 C44.9903531,40.0352966 43.6661427,42.1779141 41.630149,42.1779141 L38.499656,42.1779141 C36.9870444,42.1779141 35.7608304,40.9517001 35.7608304,39.4390885 C35.7608304,38.3450879 36.4022563,37.4009004 37.3295478,36.9620863 L29.0315513,20.3660933 L20.7534264,36.922343 C21.7278814,37.3418873 22.4101268,38.3108144 22.4101268,39.4390885 Z M32.0133797,36.7002629 C33.5259913,36.7002629 34.7522053,37.9264769 34.7522053,39.4390885 C34.7522053,40.9517001 33.5259913,42.1779141 32.0133797,42.1779141 L26.614951,42.1779141 C25.1023393,42.1779141 23.8761254,40.9517001 23.8761254,39.4390885 C23.8761254,37.9264769 25.1023393,36.7002629 26.614951,36.7002629 L32.0133797,36.7002629 Z" id="Shape" transform="translate(29.031551, 26.840491) rotate(-270.000000) translate(-29.031551, -26.840491) "></path>
                </g>
                <g id="Red" fill="#EE0028">
                    <path d="M53.8707614,14.811521 C49.1537508,4.22639289 38.6329001,-2.73882559 26.8404908,-2.73882559 C10.5042854,-2.73882559 -2.73882559,10.5042854 -2.73882559,26.8404908 C-2.73882559,43.1766961 10.5042854,56.4198072 26.8404908,56.4198072 C38.6007896,56.4198072 49.0983436,49.4925046 53.8343122,38.9509214 C54.4541916,37.5711593 53.8381849,35.9501296 52.4584228,35.3302502 C51.0786607,34.7103709 49.457631,35.3263775 48.8377516,36.7061396 C44.9778103,45.2978126 36.4244377,50.942156 26.8404908,50.942156 C13.5295087,50.942156 2.73882559,40.1514729 2.73882559,26.8404908 C2.73882559,13.5295087 13.5295087,2.73882559 26.8404908,2.73882559 C36.4505672,2.73882559 45.0229824,8.41410288 48.8674173,17.0411422 C49.4831103,18.4227775 51.1022647,19.0436965 52.4839,18.4280036 C53.8655353,17.8123107 54.4864543,16.1931563 53.8707614,14.811521 Z" id="Path"></path>
                    <path d="M29.0315513,20.3660933 L37.3295478,36.9620863 C36.4022563,37.4009004 35.7608304,38.3450879 35.7608304,39.4390885 C35.7608304,40.9517001 36.9870444,42.1779141 38.499656,42.1779141 L41.630149,42.1779141 C43.6661427,42.1779141 44.9903531,40.0352966 44.0798291,38.2142485 L31.4812314,13.017053 C30.4719077,10.9984056 27.5911949,10.9984056 26.5818712,13.017053 L13.9832735,38.2142485 C13.0727494,40.0352966 14.3969598,42.1779141 16.4329535,42.1779141 L19.6713012,42.1779141 C21.1839128,42.1779141 22.4101268,40.9517001 22.4101268,39.4390885 C22.4101268,38.3108144 21.7278814,37.3418873 20.7534264,36.922343 L29.0315513,20.3660933 Z" id="Path" transform="translate(29.031551, 26.840491) rotate(-270.000000) translate(-29.031551, -26.840491) "></path>
                </g>
                <g id="Orange" fill="#F5634A">
                    <path d="M38.9665034,-0.146324726 C35.1858761,-1.84746769 31.0734069,-2.73882559 26.8404908,-2.73882559 C22.7015466,-2.73882559 18.6772706,-1.8866407 14.9649118,-0.257611511 C10.0621956,1.89376131 5.82830401,5.34810413 2.72642958,9.70648436 C-0.80826002,14.6730043 -2.73882559,20.615284 -2.73882559,26.8404908 C-2.73882559,33.0390999 -0.824769355,38.9574832 2.68195044,43.9118288 C5.73508895,48.2253481 9.89607799,51.6602556 14.7193494,53.8294976 C18.4986552,55.5292214 22.6094066,56.4198072 26.8404908,56.4198072 C31.0475561,56.4198072 35.1357801,55.5393136 38.8977255,53.858148 C40.2787125,53.2410024 40.8979284,51.6211959 40.2807828,50.2402089 C39.6636373,48.8592218 38.0438308,48.2400059 36.6628437,48.8571515 C33.600686,50.2255909 30.2735991,50.942156 26.8404908,50.942156 C23.3878113,50.942156 20.0424303,50.2173861 16.9661244,48.8338331 C13.0367101,47.0665987 9.6428206,44.2649339 7.15295791,40.7472191 C4.29592003,36.7107537 2.73882559,31.8961189 2.73882559,26.8404908 C2.73882559,21.7631959 4.30935295,16.9291136 7.18922166,12.8826691 C9.71883249,9.32836471 13.1720822,6.5109311 17.1659817,4.75835835 C20.1877331,3.43237625 23.4628901,2.73882559 26.8404908,2.73882559 C30.2946631,2.73882559 33.641439,3.46422317 36.7188218,4.84893205 C38.0982239,5.46961217 39.7196109,4.85454649 40.340291,3.47514442 C40.9609711,2.09574235 40.3459054,0.474355385 38.9665034,-0.146324726 Z" id="Path"></path>
                    <path d="M39.0458057,36.9052724 C39.7230712,38.2577905 41.368536,38.8051909 42.7210541,38.1279254 C44.0735722,37.4506599 44.6209726,35.8051951 43.9437071,34.452677 L34.6428692,15.8786445 C33.6330166,13.8619406 30.7548204,13.8619406 29.7449678,15.8786445 L20.1448117,35.0504236 C19.4675462,36.4029417 20.0149466,38.0484065 21.3674647,38.725672 C22.7199829,39.4029375 24.3654476,38.8555371 25.0427132,37.503019 L32.1939185,23.2218627 L39.0458057,36.9052724 Z" id="Path" transform="translate(32.044259, 26.691131) rotate(-270.000000) translate(-32.044259, -26.691131) "></path>
                </g>
                <g id="Light-Orange" transform="translate(0.000000, 2.191060)" fill="#FF9C5B">
                    <path d="M14.9649118,-2.44867198 C10.0621956,-0.297299166 5.82830401,3.15704366 2.72642958,7.51542389 C-0.80826002,12.4819439 -2.73882559,18.4242235 -2.73882559,24.6494303 C-2.73882559,30.8480394 -0.824769355,36.7664227 2.68195044,41.7207683 C5.73508895,46.0342876 9.89607799,49.4691951 14.7193494,51.6384372 C16.0988641,52.258867 17.7201394,51.6435071 18.3405692,50.2639924 C18.960999,48.8844777 18.3456391,47.2632024 16.9661244,46.6427726 C13.0367101,44.8755383 9.6428206,42.0738735 7.15295791,38.5561586 C4.29592003,34.5196932 2.73882559,29.7050585 2.73882559,24.6494303 C2.73882559,19.5721354 4.30935295,14.7380531 7.18922166,10.6916086 C9.71883249,7.13730424 13.1720822,4.31987062 17.1659817,2.56729787 C18.5511035,1.95948919 19.1812403,0.343899804 18.5734317,-1.04122202 C17.965623,-2.42634385 16.3500336,-3.05648066 14.9649118,-2.44867198 Z" id="Path"></path>
                    <path d="M39.1873441,31.8820372 C39.8691766,33.2322588 41.5164819,33.7740952 42.8667035,33.0922628 C44.2169251,32.4104303 44.7587615,30.763125 44.076929,29.4129034 L37.8363733,17.0548338 C36.8235495,15.0491556 33.9596122,15.0491556 32.9467884,17.0548338 L26.5847712,29.6534316 C25.9029387,31.0036531 26.4447752,32.6509584 27.7949968,33.3327909 C29.1452184,34.0146234 30.7925237,33.4727869 31.4743561,32.1225653 L35.3915809,24.3653498 L39.1873441,31.8820372 Z" id="Path" transform="translate(35.330850, 24.588995) rotate(-270.000000) translate(-35.330850, -24.588995) "></path>
                </g>
                <g id="Yellow-Orange" transform="translate(0.000000, 10.955302)" fill="#FAD089">
                    <path d="M1.04728921,1.39627599 C-1.42228082,5.78405553 -2.73882559,10.7421506 -2.73882559,15.8851884 C-2.73882559,21.0147079 -1.42920468,25.9603588 1.02805836,30.3398795 C1.76821016,31.6590342 3.43760795,32.1284088 4.75676267,31.388257 C6.07591739,30.6481052 6.54529198,28.9787074 5.80514018,27.6595527 C3.80428573,24.0934781 2.73882559,20.0698756 2.73882559,15.8851884 C2.73882559,11.6894878 3.80991579,7.65577234 5.82080455,4.08294936 C6.56270891,2.7647795 6.09555343,1.09475937 4.77738356,0.352855007 C3.4592137,-0.389049357 1.78919357,0.0781061307 1.04728921,1.39627599 Z" id="Path"></path>
                    <path d="M39.241006,19.4190107 C39.93544,20.7627946 41.5877421,21.2891967 42.9315261,20.5947627 C44.27531,19.9003287 44.8017121,18.2480266 44.1072781,16.9042426 L41.6370481,12.1241553 C40.6162854,10.1488998 37.7915388,10.1488998 36.770776,12.1241553 L34.2231338,17.0540413 C33.5286998,18.3978253 34.0551019,20.0501274 35.3988859,20.7445614 C36.7426698,21.4389954 38.3949719,20.9125933 39.0894059,19.5688094 L39.2039121,19.3472311 L39.241006,19.4190107 Z" id="Path" transform="translate(39.165206, 15.846768) rotate(-270.000000) translate(-39.165206, -15.846768) "></path>
                </g>
            </g>
            <g id="Group" transform="translate(65.490798, 0.000000)">
                <path d="M8.79969685,22.892003 C4.27875168,22.892003 1.46469397,19.5704922 1.46469397,14.2307024 C1.46469397,8.89091258 4.27875168,5.55786882 8.78816382,5.55786882 C12.2134718,5.55786882 14.9813974,7.82987442 15.4311853,10.9899228 L13.828095,10.9899228 C13.3437081,8.63718606 11.2908299,7.02256279 8.78816382,7.02256279 C5.30519076,7.02256279 3.07931725,9.82508747 3.07931725,14.2307024 C3.07931725,18.6363173 5.29365774,21.427309 8.79969685,21.427309 C11.3715611,21.427309 13.3667741,19.9972141 13.828095,17.8059397 L15.4311853,17.8059397 C14.9583313,20.8621909 12.328802,22.892003 8.79969685,22.892003 Z M20.9005644,5.90385952 L20.9005644,16.6757034 C20.9005644,19.466695 22.7573811,21.3927099 25.7675002,21.3927099 C28.7776194,21.3927099 30.6344361,19.466695 30.6344361,16.6757034 L30.6344361,5.90385952 L32.2144603,5.90385952 L32.2144603,16.7795006 C32.2144603,20.3893369 29.7463933,22.8458709 25.7675002,22.8458709 C21.7886072,22.8458709 19.3320732,20.3893369 19.3320732,16.7795006 L19.3320732,5.90385952 L20.9005644,5.90385952 Z M46.8064609,21.1159174 L46.8064609,22.5460123 L36.8995938,22.5460123 L36.8995938,5.90385952 L38.479618,5.90385952 L38.479618,21.1159174 L46.8064609,21.1159174 Z M54.3056521,22.5460123 L52.7371609,22.5460123 L52.7371609,7.33395442 L47.1551776,7.33395442 L47.1551776,5.90385952 L59.8876354,5.90385952 L59.8876354,7.33395442 L54.3056521,7.33395442 L54.3056521,22.5460123 Z M65.0225568,5.90385952 L65.0225568,16.6757034 C65.0225568,19.466695 66.8793736,21.3927099 69.8894927,21.3927099 C72.8996118,21.3927099 74.7564286,19.466695 74.7564286,16.6757034 L74.7564286,5.90385952 L76.3364528,5.90385952 L76.3364528,16.7795006 C76.3364528,20.3893369 73.8683858,22.8458709 69.8894927,22.8458709 C65.9105996,22.8458709 63.4540656,20.3893369 63.4540656,16.7795006 L63.4540656,5.90385952 L65.0225568,5.90385952 Z M82.6016105,7.31088837 L82.6016105,14.3229666 L86.8572961,14.3229666 C89.267698,14.3229666 90.6862599,13.042801 90.6862599,10.8169275 C90.6862599,8.63718606 89.2100329,7.31088837 86.788098,7.31088837 L82.6016105,7.31088837 Z M82.6016105,15.7299954 L82.6016105,22.5460123 L81.0215863,22.5460123 L81.0215863,5.90385952 L86.9841593,5.90385952 C90.2249389,5.90385952 92.3008831,7.80680838 92.3008831,10.7707954 C92.3008831,13.1235322 90.9630524,14.8880847 88.7371789,15.4762689 L92.7737371,22.5460123 L90.9284533,22.5460123 L87.0994896,15.7299954 L82.6016105,15.7299954 Z M106.604558,21.1159174 L106.604558,22.5460123 L96.5477617,22.5460123 L96.5477617,5.90385952 L106.604558,5.90385952 L106.604558,7.33395442 L98.1277859,7.33395442 L98.1277859,13.3195936 L106.177836,13.3195936 L106.177836,14.7266224 L98.1277859,14.7266224 L98.1277859,21.1159174 L106.604558,21.1159174 Z" id="CULTURE" fill="#FFFFFF"></path>
                <path d="M2.08328341,41.2137833 L5.38592192,41.2137833 C5.47084691,42.2045749 6.46163847,42.8367942 7.8959272,42.8367942 C9.18867427,42.8367942 10.0756686,42.214011 10.0756686,41.3175805 C10.0756686,40.5626917 9.48119368,40.156939 7.92423553,39.8455474 L6.13137462,39.4869752 C3.64024156,39.0151697 2.3569306,37.6563698 2.3569306,35.5143728 C2.3569306,32.8533898 4.48949147,31.1077095 7.77325776,31.1077095 C10.962663,31.1077095 13.1707127,32.8345176 13.2273294,35.353959 L10.0284881,35.353959 C9.95299919,34.3914757 9.03769651,33.7215119 7.82043831,33.7215119 C6.60318012,33.7215119 5.80111076,34.2971146 5.80111076,35.2029812 C5.80111076,35.9484339 6.40502181,36.382495 7.83931053,36.6655783 L9.594427,37.0052782 C12.2837184,37.5242643 13.4915405,38.7415225 13.4915405,40.9023917 C13.4915405,43.7426608 11.3212351,45.4600328 7.75438554,45.4600328 C4.31020538,45.4600328 2.13990007,43.8370219 2.08328341,41.2137833 Z M27.2034667,45.4600328 C23.1270672,45.4600328 20.6170619,42.7235609 20.6170619,38.2791531 C20.6170619,33.8347453 23.1176311,31.1077095 27.2034667,31.1077095 C30.6287746,31.1077095 33.2237049,33.3912481 33.3275021,36.4768561 L29.9965553,36.4768561 C29.8172692,34.9953868 28.6943721,33.9951591 27.2034667,33.9951591 C25.3068086,33.9951591 24.146167,35.6181701 24.146167,38.269717 C24.146167,40.9307 25.3068086,42.5725832 27.2129028,42.5725832 C28.7038082,42.5725832 29.8172692,41.6100999 30.0154275,40.1475029 L33.3369382,40.1475029 C33.2237049,43.2614192 30.6948274,45.4600328 27.2034667,45.4600328 Z M44.4539342,34.0895202 L44.4539342,37.8828365 L46.5015701,37.8828365 C47.775445,37.8828365 48.5303338,37.1751282 48.5303338,35.9956145 C48.5303338,34.8349729 47.7282644,34.0895202 46.492134,34.0895202 L44.4539342,34.0895202 Z M44.4539342,40.326789 L44.4539342,45.0920245 L40.9908818,45.0920245 L40.9908818,31.4757177 L46.9828117,31.4757177 C50.1627808,31.4757177 52.068875,33.1553453 52.068875,35.9673061 C52.068875,37.6374976 51.2384973,39.1661474 49.747592,39.817239 L52.4651916,45.0920245 L48.5775143,45.0920245 L46.2467951,40.326789 L44.4539342,40.326789 Z M69.3099064,42.3083721 L69.3099064,45.0920245 L59.9775936,45.0920245 L59.9775936,31.4757177 L69.3099064,31.4757177 L69.3099064,34.2593702 L63.440646,34.2593702 L63.440646,36.9769699 L68.9607704,36.9769699 L68.9607704,39.5247196 L63.440646,39.5247196 L63.440646,42.3083721 L69.3099064,42.3083721 Z M86.7490962,42.3083721 L86.7490962,45.0920245 L77.4167833,45.0920245 L77.4167833,31.4757177 L86.7490962,31.4757177 L86.7490962,34.2593702 L80.8798357,34.2593702 L80.8798357,36.9769699 L86.3999601,36.9769699 L86.3999601,39.5247196 L80.8798357,39.5247196 L80.8798357,42.3083721 L86.7490962,42.3083721 Z M98.1397393,45.0920245 L94.855973,45.0920245 L94.855973,31.4757177 L97.6207533,31.4757177 L103.291855,39.1378391 L103.471142,39.1378391 L103.471142,31.4757177 L106.754908,31.4757177 L106.754908,45.0920245 L104.009,45.0920245 L98.3190254,37.3544143 L98.1397393,37.3544143 L98.1397393,45.0920245 Z" id="SCREEN" fill="#D5D5D5"></path>
            </g>
        </g>
        <path d="M40.096,87.528 C39.3599963,86.7066626 38.3200067,86.296 36.976,86.296 C35.8666611,86.296 35.0586692,86.5066646 34.552,86.928 C34.0453308,87.3493354 33.792,87.9173298 33.792,88.632 C33.792,88.9946685 33.8559994,89.2959988 33.984,89.536 C34.1120006,89.7760012 34.3119986,89.9813325 34.584,90.152 C34.8560014,90.3226675 35.1999979,90.4666661 35.616,90.584 C36.0320021,90.7013339 36.5333304,90.8239994 37.12,90.952 C37.728003,91.0800006 38.2799975,91.2213326 38.776,91.376 C39.2720025,91.5306674 39.6933316,91.7253322 40.04,91.96 C40.3866684,92.1946678 40.6533324,92.482665 40.84,92.824 C41.0266676,93.165335 41.12,93.5866642 41.12,94.088 C41.12,94.5893358 41.0213343,95.0266648 40.824,95.4 C40.6266657,95.7733352 40.3493351,96.0853321 39.992,96.336 C39.6346649,96.5866679 39.2080025,96.7759994 38.712,96.904 C38.2159975,97.0320006 37.664003,97.096 37.056,97.096 C35.2853245,97.096 33.7866728,96.5306723 32.56,95.4 L32.992,94.744 C33.4720024,95.2453358 34.0586632,95.6426652 34.752,95.936 C35.4453368,96.2293348 36.2239957,96.376 37.088,96.376 C38.080005,96.376 38.8559972,96.1946685 39.416,95.832 C39.9760028,95.4693315 40.256,94.9200037 40.256,94.184 C40.256,93.8106648 40.1813341,93.4933346 40.032,93.232 C39.8826659,92.9706654 39.6613348,92.744001 39.368,92.552 C39.0746652,92.359999 38.7040022,92.1946674 38.256,92.056 C37.8079978,91.9173326 37.2853363,91.7840006 36.688,91.656 C36.079997,91.5279994 35.5440023,91.3920007 35.08,91.248 C34.6159977,91.1039993 34.2266682,90.9226678 33.912,90.704 C33.5973318,90.4853322 33.3600008,90.2213349 33.2,89.912 C33.0399992,89.6026651 32.96,89.2133357 32.96,88.744 C32.96,88.2319974 33.0586657,87.7786686 33.256,87.384 C33.4533343,86.9893314 33.7279982,86.6560014 34.08,86.384 C34.4320018,86.1119986 34.8533309,85.9066674 35.344,85.768 C35.8346691,85.6293326 36.3786637,85.56 36.976,85.56 C37.7120037,85.56 38.3679971,85.6693322 38.944,85.888 C39.5200029,86.1066678 40.0426643,86.4399978 40.512,86.888 L40.096,87.528 Z M42.928,97 L42.928,88.68 L43.728,88.68 L43.728,97 L42.928,97 Z M42.928,86.792 L42.928,85.32 L43.728,85.32 L43.728,86.792 L42.928,86.792 Z M58.464,97 L57.664,97 L57.664,92.36 C57.664,91.3039947 57.501335,90.5253358 57.176,90.024 C56.850665,89.5226642 56.3520034,89.272 55.68,89.272 C55.338665,89.272 55.0133349,89.3359994 54.704,89.464 C54.3946651,89.5920006 54.1120013,89.7706655 53.856,90 C53.5999987,90.2293345 53.3786676,90.5013318 53.192,90.816 C53.0053324,91.1306682 52.8586672,91.4799981 52.752,91.864 L52.752,97 L51.952,97 L51.952,92.36 C51.952,91.293328 51.7920016,90.5120025 51.472,90.016 C51.1519984,89.5199975 50.6560034,89.272 49.984,89.272 C49.642665,89.272 49.3200015,89.3333327 49.016,89.456 C48.7119985,89.5786673 48.4320013,89.7546655 48.176,89.984 C47.9199987,90.2133345 47.6933343,90.4853318 47.496,90.8 C47.2986657,91.1146682 47.1466672,91.4639981 47.04,91.848 L47.04,97 L46.24,97 L46.24,88.68 L46.992,88.68 L46.992,90.664 C47.333335,89.9919966 47.7813306,89.4693352 48.336,89.096 C48.8906694,88.7226648 49.5039966,88.536 50.176,88.536 C50.8800035,88.536 51.4506645,88.7439979 51.888,89.16 C52.3253355,89.5760021 52.5866662,90.1199966 52.672,90.792 C53.4613373,89.2879925 54.5493264,88.536 55.936,88.536 C56.8426712,88.536 57.4906647,88.8586634 57.88,89.504 C58.2693353,90.1493366 58.464,91.0533275 58.464,92.216 L58.464,97 Z M64.944,97.16 C64.2293298,97.16 63.5920028,96.9706686 63.032,96.592 C62.4719972,96.2133314 62.021335,95.7520027 61.68,95.208 L61.68,100.408 L60.88,100.408 L60.88,88.68 L61.616,88.68 L61.616,90.344 C61.957335,89.810664 62.4079972,89.3760017 62.968,89.04 C63.5280028,88.7039983 64.1279968,88.536 64.768,88.536 C65.3440029,88.536 65.8773309,88.6586654 66.368,88.904 C66.8586691,89.1493346 67.2799982,89.471998 67.632,89.872 C67.9840018,90.272002 68.2586657,90.7333307 68.456,91.256 C68.6533343,91.7786693 68.752,92.3119973 68.752,92.856 C68.752,93.4320029 68.6613342,93.9813307 68.48,94.504 C68.2986658,95.0266693 68.0400017,95.4853314 67.704,95.88 C67.3679983,96.2746686 66.9653357,96.5866655 66.496,96.816 C66.0266643,97.0453345 65.5093362,97.16 64.944,97.16 Z M64.752,96.44 C65.2320024,96.44 65.6693314,96.3386677 66.064,96.136 C66.4586686,95.9333323 66.7946653,95.6640017 67.072,95.328 C67.3493347,94.9919983 67.5626659,94.6080022 67.712,94.176 C67.8613341,93.7439978 67.936,93.3040022 67.936,92.856 C67.936,92.3759976 67.8506675,91.9200022 67.68,91.488 C67.5093325,91.0559978 67.2720015,90.6746683 66.968,90.344 C66.6639985,90.0133317 66.3093354,89.7493343 65.904,89.552 C65.4986646,89.3546657 65.066669,89.256 64.608,89.256 C64.3199986,89.256 64.013335,89.3173327 63.688,89.44 C63.362665,89.5626673 63.0560014,89.727999 62.768,89.936 C62.4799986,90.144001 62.2346677,90.381332 62.032,90.648 C61.8293323,90.914668 61.7120002,91.1973318 61.68,91.496 L61.68,94.232 C61.8186674,94.5413349 61.9946656,94.829332 62.208,95.096 C62.4213344,95.362668 62.661332,95.5973323 62.928,95.8 C63.194668,96.0026677 63.4826651,96.1599994 63.792,96.272 C64.1013349,96.3840006 64.4213317,96.44 64.752,96.44 Z M70.736,85.32 L71.552,85.32 L71.552,95.352 C71.552,95.6613349 71.6399991,95.9066658 71.816,96.088 C71.9920009,96.2693342 72.2346651,96.36 72.544,96.36 C72.6613339,96.36 72.8026658,96.3466668 72.968,96.32 C73.1333342,96.2933332 73.2853326,96.2533336 73.424,96.2 L73.584,96.84 C73.4026658,96.914667 73.178668,96.9759998 72.912,97.024 C72.645332,97.0720002 72.416001,97.096 72.224,97.096 C71.7759978,97.096 71.4160014,96.9600014 71.144,96.688 C70.8719986,96.4159986 70.736,96.050669 70.736,95.592 L70.736,85.32 Z M74.816,97 L74.816,88.68 L75.616,88.68 L75.616,97 L74.816,97 Z M74.816,86.792 L74.816,85.32 L75.616,85.32 L75.616,86.792 L74.816,86.792 Z M78.496,97 L78.496,89.336 L77.328,89.336 L77.328,88.68 L78.496,88.68 L78.496,88.408 C78.496,87.3839949 78.7039979,86.5866695 79.12,86.016 C79.5360021,85.4453305 80.1119963,85.16 80.848,85.16 C81.1680016,85.16 81.4773318,85.2079995 81.776,85.304 C82.0746682,85.4000005 82.319999,85.5279992 82.512,85.688 L82.224,86.264 C82.0746659,86.1466661 81.8906678,86.050667 81.672,85.976 C81.4533322,85.901333 81.2266678,85.864 80.992,85.864 C80.4479973,85.864 80.0293348,86.0799978 79.736,86.512 C79.4426652,86.9440022 79.296,87.5706626 79.296,88.392 L79.296,88.68 L81.664,88.68 L81.664,89.336 L79.296,89.336 L79.296,97 L78.496,97 Z M83.776,99.816 C83.8293336,99.8266667 83.9093328,99.832 84.016,99.832 C84.1226672,99.832 84.2213329,99.8266667 84.312,99.816 C84.4026671,99.8053333 84.4906662,99.7786669 84.576,99.736 C84.6400003,99.7039998 84.6986664,99.658667 84.752,99.6 C84.8053336,99.541333 84.8799995,99.4213342 84.976,99.24 C85.0720005,99.0586658 85.1946659,98.7920018 85.344,98.44 C85.4933341,98.0879982 85.6959987,97.608003 85.952,97 L82.24,88.68 L83.072,88.68 L86.384,96.216 L89.472,88.68 L90.256,88.68 L85.696,99.624 C85.5786661,99.9226682 85.3893346,100.154666 85.128,100.32 C84.8666654,100.485334 84.5120022,100.568 84.064,100.568 L83.928,100.568 C83.8799998,100.568 83.8293336,100.562667 83.776,100.552 L83.776,99.816 Z M104.144,94.056 C104.144,94.4720021 104.064001,94.8586649 103.904,95.216 C103.743999,95.5733351 103.525335,95.885332 103.248,96.152 C102.970665,96.418668 102.645335,96.6266659 102.272,96.776 C101.898665,96.9253341 101.504002,97 101.088,97 L95.776,97 L95.776,85.64 L101.072,85.64 C101.466669,85.64 101.823998,85.7253325 102.144,85.896 C102.464002,86.0666675 102.735999,86.2879986 102.96,86.56 C103.184001,86.8320014 103.357333,87.1413316 103.48,87.488 C103.602667,87.8346684 103.664,88.1839982 103.664,88.536 C103.664,89.1120029 103.520001,89.64 103.232,90.12 C102.943999,90.6000024 102.544003,90.9519989 102.032,91.176 C102.68267,91.368001 103.197331,91.7279974 103.576,92.256 C103.954669,92.7840026 104.144,93.3839966 104.144,94.056 Z M103.328,93.944 C103.328,93.6453318 103.274667,93.3546681 103.168,93.072 C103.061333,92.7893319 102.912001,92.5386678 102.72,92.32 C102.527999,92.1013322 102.301335,91.9280006 102.04,91.8 C101.778665,91.6719994 101.498668,91.608 101.2,91.608 L96.592,91.608 L96.592,96.264 L101.088,96.264 C101.408002,96.264 101.703999,96.2000006 101.976,96.072 C102.248001,95.9439994 102.482666,95.7706678 102.68,95.552 C102.877334,95.3333322 103.034666,95.0853347 103.152,94.808 C103.269334,94.5306653 103.328,94.2426682 103.328,93.944 Z M96.592,86.376 L96.592,90.92 L100.752,90.92 C101.061335,90.92 101.343999,90.8560006 101.6,90.728 C101.856001,90.5999994 102.077332,90.432001 102.264,90.224 C102.450668,90.015999 102.597333,89.7733347 102.704,89.496 C102.810667,89.2186653 102.864,88.9360014 102.864,88.648 C102.864,88.3386651 102.813334,88.0480014 102.712,87.776 C102.610666,87.5039986 102.472001,87.264001 102.296,87.056 C102.119999,86.847999 101.909335,86.6826673 101.664,86.56 C101.418665,86.4373327 101.146668,86.376 100.848,86.376 L96.592,86.376 Z M108.704,97.16 C106.933324,97.16 106.048,95.9333456 106.048,93.48 L106.048,88.68 L106.848,88.68 L106.848,93.368 C106.848,95.4160102 107.54666,96.44 108.944,96.44 C109.296002,96.44 109.637332,96.3786673 109.968,96.256 C110.298668,96.1333327 110.607999,95.9626678 110.896,95.744 C111.184001,95.5253322 111.437332,95.2613349 111.656,94.952 C111.874668,94.6426651 112.048,94.3013352 112.176,93.928 L112.176,88.68 L112.976,88.68 L112.976,95.88 C112.976,96.146668 113.087999,96.28 113.312,96.28 L113.312,97 C113.258666,97.0106667 113.210667,97.016 113.168,97.016 L113.072,97.016 C112.858666,97.016 112.669334,96.949334 112.504,96.816 C112.338666,96.682666 112.256,96.5040011 112.256,96.28 L112.256,95.032 C111.893332,95.7040034 111.39467,96.2266648 110.76,96.6 C110.12533,96.9733352 109.440004,97.16 108.704,97.16 Z M115.52,97 L115.52,88.68 L116.32,88.68 L116.32,97 L115.52,97 Z M115.52,86.792 L115.52,85.32 L116.32,85.32 L116.32,86.792 L115.52,86.792 Z M118.896,85.32 L119.712,85.32 L119.712,95.352 C119.712,95.6613349 119.799999,95.9066658 119.976,96.088 C120.152001,96.2693342 120.394665,96.36 120.704,96.36 C120.821334,96.36 120.962666,96.3466668 121.128,96.32 C121.293334,96.2933332 121.445333,96.2533336 121.584,96.2 L121.744,96.84 C121.562666,96.914667 121.338668,96.9759998 121.072,97.024 C120.805332,97.0720002 120.576001,97.096 120.384,97.096 C119.935998,97.096 119.576001,96.9600014 119.304,96.688 C119.031999,96.4159986 118.896,96.050669 118.896,95.592 L118.896,85.32 Z M126.4,97.16 C125.823997,97.16 125.290669,97.0400012 124.8,96.8 C124.309331,96.5599988 123.885335,96.240002 123.528,95.84 C123.170665,95.439998 122.893334,94.9813359 122.696,94.464 C122.498666,93.9466641 122.4,93.4106694 122.4,92.856 C122.4,92.2799971 122.495999,91.7306693 122.688,91.208 C122.880001,90.6853307 123.146665,90.2266686 123.488,89.832 C123.829335,89.4373314 124.231998,89.1226678 124.696,88.888 C125.160002,88.6533322 125.669331,88.536 126.224,88.536 C126.586668,88.536 126.927998,88.5893328 127.248,88.696 C127.568002,88.8026672 127.866665,88.9439991 128.144,89.12 C128.421335,89.2960009 128.671999,89.5013322 128.896,89.736 C129.120001,89.9706678 129.311999,90.221332 129.472,90.488 L129.472,85.32 L130.272,85.32 L130.272,95.88 C130.272,96.146668 130.383999,96.28 130.608,96.28 L130.608,97 C130.544,97.0106667 130.490667,97.0186666 130.448,97.024 C130.405333,97.0293334 130.362667,97.032 130.32,97.032 C130.106666,97.032 129.925334,96.9493342 129.776,96.784 C129.626666,96.6186658 129.552,96.4453342 129.552,96.264 L129.552,95.336 C129.210665,95.8906694 128.75467,96.3333317 128.184,96.664 C127.61333,96.9946683 127.01867,97.16 126.4,97.16 Z M126.544,96.44 C126.832001,96.44 127.141332,96.3813339 127.472,96.264 C127.802668,96.1466661 128.109332,95.984001 128.392,95.776 C128.674668,95.567999 128.917332,95.330668 129.12,95.064 C129.322668,94.797332 129.44,94.5093349 129.472,94.2 L129.472,91.464 C129.354666,91.1653318 129.186668,90.8800014 128.968,90.608 C128.749332,90.3359986 128.501335,90.1013343 128.224,89.904 C127.946665,89.7066657 127.648002,89.5493339 127.328,89.432 C127.007998,89.3146661 126.698668,89.256 126.4,89.256 C125.919998,89.256 125.482669,89.359999 125.088,89.568 C124.693331,89.776001 124.357335,90.0479983 124.08,90.384 C123.802665,90.7200017 123.589334,91.1039978 123.44,91.536 C123.290666,91.9680022 123.216,92.413331 123.216,92.872 C123.216,93.3520024 123.301332,93.8053312 123.472,94.232 C123.642668,94.6586688 123.879998,95.0373317 124.184,95.368 C124.488002,95.6986683 124.839998,95.959999 125.24,96.152 C125.640002,96.344001 126.074664,96.44 126.544,96.44 Z M132.816,97 L132.816,88.68 L133.616,88.68 L133.616,97 L132.816,97 Z M132.816,86.792 L132.816,85.32 L133.616,85.32 L133.616,86.792 L132.816,86.792 Z M142.928,97 L142.128,97 L142.128,92.36 C142.128,91.2826613 141.976002,90.4986691 141.672,90.008 C141.367998,89.5173309 140.885337,89.272 140.224,89.272 C139.871998,89.272 139.522668,89.3359994 139.176,89.464 C138.829332,89.5920006 138.506668,89.7733322 138.208,90.008 C137.909332,90.2426678 137.648001,90.5173318 137.424,90.832 C137.199999,91.1466682 137.034667,91.4853315 136.928,91.848 L136.928,97 L136.128,97 L136.128,88.68 L136.88,88.68 L136.88,90.664 C137.050668,90.3439984 137.261332,90.0533346 137.512,89.792 C137.762668,89.5306654 138.045332,89.3066676 138.36,89.12 C138.674668,88.9333324 139.007998,88.7893338 139.36,88.688 C139.712002,88.5866662 140.074665,88.536 140.448,88.536 C141.354671,88.536 141.994665,88.8533302 142.368,89.488 C142.741335,90.1226698 142.928,91.0319941 142.928,92.216 L142.928,97 Z M148.704,97.128 C148.127997,97.128 147.600002,97.0080012 147.12,96.768 C146.639998,96.5279988 146.226668,96.208002 145.88,95.808 C145.533332,95.407998 145.261334,94.9520026 145.064,94.44 C144.866666,93.9279974 144.768,93.4000027 144.768,92.856 C144.768,92.2906638 144.861332,91.7466693 145.048,91.224 C145.234668,90.7013307 145.498665,90.240002 145.84,89.84 C146.181335,89.439998 146.589331,89.1226678 147.064,88.888 C147.538669,88.6533322 148.063997,88.536 148.64,88.536 C149.365337,88.536 149.997331,88.7253314 150.536,89.104 C151.074669,89.4826686 151.530665,89.9439973 151.904,90.488 L151.904,88.68 L152.64,88.68 L152.64,97.16 C152.64,97.7253362 152.533334,98.2213312 152.32,98.648 C152.106666,99.0746688 151.821335,99.4293319 151.464,99.712 C151.106665,99.9946681 150.690669,100.207999 150.216,100.352 C149.741331,100.496001 149.242669,100.568 148.72,100.568 C148.239998,100.568 147.808002,100.522667 147.424,100.432 C147.039998,100.341333 146.701335,100.213334 146.408,100.048 C146.114665,99.8826658 145.853334,99.6800012 145.624,99.44 C145.394666,99.1999988 145.194668,98.9360014 145.024,98.648 L145.568,98.28 C145.898668,98.8453362 146.346664,99.2586654 146.912,99.52 C147.477336,99.7813346 148.079997,99.912 148.72,99.912 C149.146669,99.912 149.549331,99.8533339 149.928,99.736 C150.306669,99.6186661 150.637332,99.4453345 150.92,99.216 C151.202668,98.9866655 151.426666,98.701335 151.592,98.36 C151.757334,98.018665 151.84,97.618669 151.84,97.16 L151.84,95.336 C151.498665,95.8800027 151.045336,96.314665 150.48,96.64 C149.914664,96.965335 149.32267,97.128 148.704,97.128 Z M148.896,96.44 C149.248002,96.44 149.591998,96.373334 149.928,96.24 C150.264002,96.106666 150.567999,95.9333344 150.84,95.72 C151.112001,95.5066656 151.335999,95.266668 151.512,95 C151.688001,94.733332 151.797333,94.466668 151.84,94.2 L151.84,91.464 C151.711999,91.1439984 151.541334,90.8480014 151.328,90.576 C151.114666,90.3039986 150.872001,90.072001 150.6,89.88 C150.327999,89.687999 150.034668,89.5360006 149.72,89.424 C149.405332,89.3119994 149.088002,89.256 148.768,89.256 C148.266664,89.256 147.818669,89.3626656 147.424,89.576 C147.029331,89.7893344 146.696001,90.066665 146.424,90.408 C146.151999,90.749335 145.944001,91.1359978 145.8,91.568 C145.655999,92.0000022 145.584,92.4346645 145.584,92.872 C145.584,93.3520024 145.669332,93.8053312 145.84,94.232 C146.010668,94.6586688 146.245332,95.0373317 146.544,95.368 C146.842668,95.6986683 147.194665,95.959999 147.6,96.152 C148.005335,96.344001 148.437331,96.44 148.896,96.44 Z M166.976,86.376 L162.816,86.376 L162.816,97 L162,97 L162,86.376 L157.84,86.376 L157.84,85.64 L166.976,85.64 L166.976,86.376 Z M170.208,97.16 C169.62133,97.16 169.077336,97.0453345 168.576,96.816 C168.074664,96.5866655 167.640002,96.272002 167.272,95.872 C166.903998,95.471998 166.616001,95.0106693 166.408,94.488 C166.199999,93.9653307 166.096,93.4053363 166.096,92.808 C166.096,92.2213304 166.199999,91.6693359 166.408,91.152 C166.616001,90.6346641 166.901332,90.1813353 167.264,89.792 C167.626668,89.4026647 168.055998,89.0960011 168.552,88.872 C169.048002,88.6479989 169.583997,88.536 170.16,88.536 C170.74667,88.536 171.290664,88.6506655 171.792,88.88 C172.293336,89.1093345 172.725332,89.4186647 173.088,89.808 C173.450668,90.1973353 173.733332,90.6506641 173.936,91.168 C174.138668,91.6853359 174.24,92.2319971 174.24,92.808 L174.24,93.008 C174.24,93.0880004 174.234667,93.1386666 174.224,93.16 L166.928,93.16 C166.96,93.6400024 167.071999,94.0853313 167.264,94.496 C167.456001,94.9066687 167.698665,95.2613318 167.992,95.56 C168.285335,95.8586682 168.623998,96.0933325 169.008,96.264 C169.392002,96.4346675 169.802664,96.52 170.24,96.52 C170.528001,96.52 170.810665,96.4800004 171.088,96.4 C171.365335,96.3199996 171.623999,96.2106674 171.864,96.072 C172.104001,95.9333326 172.317332,95.7653343 172.504,95.568 C172.690668,95.3706657 172.837333,95.1546678 172.944,94.92 L173.648,95.112 C173.530666,95.4106682 173.357334,95.6853321 173.128,95.936 C172.898666,96.1866679 172.632002,96.4026658 172.328,96.584 C172.023998,96.7653342 171.690668,96.9066662 171.328,97.008 C170.965332,97.1093338 170.592002,97.16 170.208,97.16 Z M173.472,92.52 C173.44,92.0293309 173.330668,91.5813354 173.144,91.176 C172.957332,90.7706646 172.717335,90.4213348 172.424,90.128 C172.130665,89.8346652 171.792002,89.6053342 171.408,89.44 C171.023998,89.2746658 170.613336,89.192 170.176,89.192 C169.738664,89.192 169.328002,89.2746658 168.944,89.44 C168.559998,89.6053342 168.221335,89.8346652 167.928,90.128 C167.634665,90.4213348 167.400001,90.7733313 167.224,91.184 C167.047999,91.5946687 166.944,92.0399976 166.912,92.52 L173.472,92.52 Z M178.048,97.16 C177.663998,97.16 177.306668,97.093334 176.976,96.96 C176.645332,96.826666 176.354668,96.6453345 176.104,96.416 C175.853332,96.1866655 175.658667,95.9146682 175.52,95.6 C175.381333,95.2853318 175.312,94.9466685 175.312,94.584 C175.312,94.2213315 175.397332,93.8906682 175.568,93.592 C175.738668,93.2933318 175.975998,93.0346678 176.28,92.816 C176.584002,92.5973322 176.949331,92.4266673 177.376,92.304 C177.802669,92.1813327 178.271997,92.12 178.784,92.12 C179.232002,92.12 179.682664,92.1599996 180.136,92.24 C180.589336,92.3200004 180.997332,92.4293326 181.36,92.568 L181.36,91.752 C181.36,90.9626627 181.136002,90.3360023 180.688,89.872 C180.239998,89.4079977 179.632004,89.176 178.864,89.176 C178.458665,89.176 178.029336,89.2613325 177.576,89.432 C177.122664,89.6026675 176.661336,89.8479984 176.192,90.168 L175.888,89.624 C176.954672,88.898663 177.967995,88.536 178.928,88.536 C179.930672,88.536 180.719997,88.8266638 181.296,89.408 C181.872003,89.9893362 182.16,90.7919949 182.16,91.816 L182.16,95.88 C182.16,96.146668 182.277332,96.28 182.512,96.28 L182.512,97 C182.458666,97.0106667 182.402667,97.0186666 182.344,97.024 C182.285333,97.0293334 182.234667,97.032 182.192,97.032 C181.978666,97.032 181.808001,96.9600007 181.68,96.816 C181.551999,96.6719993 181.477333,96.4986677 181.456,96.296 L181.456,95.608 C181.071998,96.1093358 180.581336,96.493332 179.984,96.76 C179.386664,97.026668 178.741337,97.16 178.048,97.16 Z M178.208,96.52 C178.82667,96.52 179.394664,96.4026678 179.912,96.168 C180.429336,95.9333322 180.826665,95.6240019 181.104,95.24 C181.274668,95.0159989 181.36,94.8026677 181.36,94.6 L181.36,93.128 C180.975998,92.9786659 180.576002,92.866667 180.16,92.792 C179.743998,92.717333 179.312002,92.68 178.864,92.68 C178.447998,92.68 178.069335,92.7253329 177.728,92.816 C177.386665,92.9066671 177.093335,93.0319992 176.848,93.192 C176.602665,93.3520008 176.413334,93.5466655 176.28,93.776 C176.146666,94.0053345 176.08,94.2586653 176.08,94.536 C176.08,94.8133347 176.133333,95.0746654 176.24,95.32 C176.346667,95.5653346 176.495999,95.7759991 176.688,95.952 C176.880001,96.1280009 177.106665,96.2666662 177.368,96.368 C177.629335,96.4693338 177.909332,96.52 178.208,96.52 Z M196.816,97 L196.016,97 L196.016,92.36 C196.016,91.3039947 195.853335,90.5253358 195.528,90.024 C195.202665,89.5226642 194.704003,89.272 194.032,89.272 C193.690665,89.272 193.365335,89.3359994 193.056,89.464 C192.746665,89.5920006 192.464001,89.7706655 192.208,90 C191.951999,90.2293345 191.730668,90.5013318 191.544,90.816 C191.357332,91.1306682 191.210667,91.4799981 191.104,91.864 L191.104,97 L190.304,97 L190.304,92.36 C190.304,91.293328 190.144002,90.5120025 189.824,90.016 C189.503998,89.5199975 189.008003,89.272 188.336,89.272 C187.994665,89.272 187.672002,89.3333327 187.368,89.456 C187.063998,89.5786673 186.784001,89.7546655 186.528,89.984 C186.271999,90.2133345 186.045334,90.4853318 185.848,90.8 C185.650666,91.1146682 185.498667,91.4639981 185.392,91.848 L185.392,97 L184.592,97 L184.592,88.68 L185.344,88.68 L185.344,90.664 C185.685335,89.9919966 186.133331,89.4693352 186.688,89.096 C187.242669,88.7226648 187.855997,88.536 188.528,88.536 C189.232004,88.536 189.802664,88.7439979 190.24,89.16 C190.677336,89.5760021 190.938666,90.1199966 191.024,90.792 C191.813337,89.2879925 192.901326,88.536 194.288,88.536 C195.194671,88.536 195.842665,88.8586634 196.232,89.504 C196.621335,90.1493366 196.816,91.0533275 196.816,92.216 L196.816,97 Z M201.872,97.16 C201.231997,97.16 200.61867,97.0533344 200.032,96.84 C199.44533,96.6266656 198.933336,96.3066688 198.496,95.88 L198.896,95.336 C199.344002,95.7413354 199.807998,96.039999 200.288,96.232 C200.768002,96.424001 201.295997,96.52 201.872,96.52 C202.597337,96.52 203.181331,96.3680015 203.624,96.064 C204.066669,95.7599985 204.288,95.3360027 204.288,94.792 C204.288,94.536 204.232001,94.3200009 204.12,94.144 C204.007999,93.9679991 203.840001,93.8186673 203.616,93.696 C203.391999,93.5733327 203.114668,93.4640005 202.784,93.368 C202.453332,93.2719995 202.069336,93.1706672 201.632,93.064 C201.162664,92.9573328 200.754668,92.8506672 200.408,92.744 C200.061332,92.6373328 199.776001,92.5093341 199.552,92.36 C199.327999,92.2106659 199.160001,92.0293344 199.048,91.816 C198.935999,91.6026656 198.88,91.3306683 198.88,91 C198.88,90.5839979 198.959999,90.2213349 199.12,89.912 C199.280001,89.6026651 199.501332,89.3466677 199.784,89.144 C200.066668,88.9413323 200.391998,88.7893338 200.76,88.688 C201.128002,88.5866662 201.519998,88.536 201.936,88.536 C202.58667,88.536 203.162664,88.6453322 203.664,88.864 C204.165336,89.0826678 204.554665,89.362665 204.832,89.704 L204.384,90.136 C204.106665,89.8159984 203.746669,89.5760008 203.304,89.416 C202.861331,89.2559992 202.389336,89.176 201.888,89.176 C201.578665,89.176 201.288001,89.2079997 201.016,89.272 C200.743999,89.3360003 200.506668,89.4373326 200.304,89.576 C200.101332,89.7146674 199.941334,89.8933322 199.824,90.112 C199.706666,90.3306678 199.648,90.5893318 199.648,90.888 C199.648,91.1333346 199.688,91.3306659 199.768,91.48 C199.848,91.6293341 199.975999,91.7573328 200.152,91.864 C200.328001,91.9706672 200.554665,92.0639996 200.832,92.144 C201.109335,92.2240004 201.439998,92.3119995 201.824,92.408 C202.346669,92.536 202.810665,92.6586661 203.216,92.776 C203.621335,92.8933339 203.959999,93.0373325 204.232,93.208 C204.504001,93.3786675 204.711999,93.5813322 204.856,93.816 C205.000001,94.0506678 205.072,94.3493315 205.072,94.712 C205.072,95.4586704 204.781336,96.0533311 204.2,96.496 C203.618664,96.9386689 202.842672,97.16 201.872,97.16 Z M206.752,97 L206.752,95.64 L207.456,95.64 L207.456,97 L206.752,97 Z" id="SimplifyBuildingTeams." fill="#FFFFFF" fill-rule="nonzero"></path>
    </g>
</svg>