<svg xmlns="http://www.w3.org/2000/svg" width="196" height="60" viewBox="0 0 196 60">
    <g fill="none" fill-rule="nonzero">
        <g fill="#3B8183">
            <path d="M53.177 18.796a2.551 2.551 0 1 1-4.66 2.077A22.452 22.452 0 0 0 28 7.55C15.602 7.551 5.551 17.601 5.551 30c0 12.398 10.05 22.449 22.449 22.449a22.451 22.451 0 0 0 20.489-13.26 2.551 2.551 0 0 1 4.654 2.091A27.553 27.553 0 0 1 28 57.551C12.784 57.551.449 45.216.449 30 .449 14.784 12.784 2.449 28 2.449a27.553 27.553 0 0 1 25.177 16.347zm2.084 15.217a2.551 2.551 0 1 1-5.049-.738 22.656 22.656 0 0 0 .044-6.233 2.551 2.551 0 0 1 5.059-.665 27.784 27.784 0 0 1-.054 7.636z"/>
            <path d="M18.306 23.833a2.551 2.551 0 0 1-2.55-2.551v-3.017c0-1.896 1.995-3.13 3.691-2.281l23.47 11.734c1.88.94 1.88 3.624 0 4.564l-23.47 11.734c-1.696.848-3.692-.385-3.692-2.281v-2.916a2.551 2.551 0 0 1 4.858-1.09L36.071 30l-15.42-7.71a2.552 2.552 0 0 1-2.345 1.543zm2.551 8.944a2.551 2.551 0 1 1-5.102 0V27.75a2.551 2.551 0 0 1 5.102 0v5.028z"/>
        </g>
        <g fill="#ED303C">
            <path d="M53.177 18.796A27.553 27.553 0 0 0 28 2.449C12.784 2.449.449 14.784.449 30 .449 45.216 12.784 57.551 28 57.551A27.553 27.553 0 0 0 53.143 41.28a2.551 2.551 0 0 0-4.654-2.09A22.451 22.451 0 0 1 28 52.448C15.602 52.449 5.551 42.399 5.551 30 5.551 17.602 15.601 7.551 28 7.551a22.452 22.452 0 0 1 20.517 13.322 2.551 2.551 0 1 0 4.66-2.077z"/>
            <path d="M36.071 30l-15.458 7.729a2.551 2.551 0 0 0-4.858 1.09v2.916c0 1.896 1.996 3.13 3.692 2.281l23.47-11.734c1.88-.94 1.88-3.624 0-4.564l-23.47-11.734c-1.696-.848-3.692.385-3.692 2.281v3.017a2.551 2.551 0 0 0 4.895 1.008L36.071 30z"/>
        </g>
        <g fill="#F5634A">
            <path d="M39.295 4.864A27.46 27.46 0 0 0 28 2.449c-3.855 0-7.603.794-11.061 2.311a27.645 27.645 0 0 0-11.4 9.28A27.433 27.433 0 0 0 .45 30a27.433 27.433 0 0 0 5.049 15.9 27.648 27.648 0 0 0 11.212 9.238A27.46 27.46 0 0 0 28 57.551c3.919 0 7.726-.82 11.23-2.386a2.551 2.551 0 1 0-2.081-4.658A22.36 22.36 0 0 1 28 52.449c-3.216 0-6.332-.675-9.197-1.964a22.546 22.546 0 0 1-9.14-7.532A22.332 22.332 0 0 1 5.55 30c0-4.73 1.463-9.232 4.145-13a22.543 22.543 0 0 1 9.293-7.568A22.363 22.363 0 0 1 28 7.551c3.217 0 6.335.676 9.201 1.965a2.551 2.551 0 0 0 2.094-4.652z"/>
            <path d="M23.333 36.382a2.551 2.551 0 0 0 2.285 4.562l17.3-8.663c1.878-.94 1.878-3.621 0-4.562l-17.857-8.942a2.551 2.551 0 0 0-2.285 4.562L36.078 30l-12.745 6.382z"/>
        </g>
        <g fill="#FF9C5B">
            <path d="M16.939 4.76a27.645 27.645 0 0 0-11.4 9.28A27.433 27.433 0 0 0 .45 30a27.433 27.433 0 0 0 5.049 15.9 27.648 27.648 0 0 0 11.212 9.238 2.551 2.551 0 0 0 2.093-4.653 22.546 22.546 0 0 1-9.14-7.532A22.332 22.332 0 0 1 5.55 30c0-4.73 1.463-9.232 4.145-13a22.543 22.543 0 0 1 9.293-7.568 2.551 2.551 0 1 0-2.05-4.672zM29.115 33.536a2.551 2.551 0 0 0 2.3 4.554l11.51-5.813c1.869-.943 1.869-3.61 0-4.554l-11.734-5.926a2.551 2.551 0 1 0-2.3 4.555L36.116 30l-7 3.536z"/>
        </g>
        <g fill="#FAD089">
            <path d="M3.975 16.505A27.435 27.435 0 0 0 .45 30c0 4.778 1.22 9.384 3.509 13.464a2.551 2.551 0 0 0 4.45-2.497A22.333 22.333 0 0 1 5.55 30c0-3.908.998-7.665 2.87-10.993a2.551 2.551 0 0 0-4.446-2.502zM36.152 30.035a2.551 2.551 0 0 0 2.343 4.532l4.452-2.3c1.84-.951 1.84-3.582 0-4.533l-4.592-2.373a2.551 2.551 0 1 0-2.342 4.533l.206.106-.067.035z"/>
        </g>
        <g>
            <path fill="#000" d="M73.196 26.322c-4.21 0-6.832-3.093-6.832-8.067s2.621-8.078 6.822-8.078c3.19 0 5.768 2.116 6.187 5.06H77.88c-.451-2.192-2.363-3.696-4.694-3.696-3.245 0-5.318 2.61-5.318 6.714 0 4.103 2.063 6.703 5.328 6.703 2.396 0 4.254-1.332 4.684-3.373h1.493c-.44 2.847-2.89 4.737-6.177 4.737zM84.467 10.5v10.033c0 2.6 1.73 4.394 4.534 4.394 2.803 0 4.533-1.794 4.533-4.394V10.5h1.471v10.13c0 3.362-2.298 5.65-6.004 5.65-3.706 0-5.995-2.288-5.995-5.65v-10.13h1.461zm24.13 14.169V26h-9.228V10.499h1.472v14.169h7.756zM115.582 26h-1.461V11.831h-5.2V10.5h11.86v1.332h-5.2V26zm9.982-15.501v10.033c0 2.6 1.73 4.394 4.533 4.394 2.804 0 4.533-1.794 4.533-4.394V10.5h1.472v10.13c0 3.362-2.299 5.65-6.005 5.65s-5.994-2.288-5.994-5.65v-10.13h1.46zm16.374 1.31v6.532h3.963c2.245 0 3.567-1.193 3.567-3.266 0-2.03-1.375-3.265-3.631-3.265h-3.9zm0 7.842V26h-1.472V10.499h5.554c3.018 0 4.952 1.772 4.952 4.533 0 2.192-1.246 3.835-3.32 4.383l3.76 6.585h-1.719l-3.566-6.349h-4.19zm22.357 5.017V26h-9.368V10.499h9.368v1.332h-7.896v5.575h7.498v1.31H156.4v5.952h7.896z"/>
            <path fill="#292A2A" d="M66.94 43.388h3.077c.079.923 1.002 1.511 2.337 1.511 1.205 0 2.03-.58 2.03-1.415 0-.703-.553-1.08-2.003-1.37l-1.67-.335c-2.32-.44-3.516-1.705-3.516-3.7 0-2.478 1.987-4.104 5.045-4.104 2.97 0 5.028 1.608 5.08 3.955h-2.98c-.07-.897-.922-1.52-2.056-1.52s-1.88.535-1.88 1.38c0 .693.562 1.098 1.898 1.361l1.635.317c2.504.483 3.63 1.617 3.63 3.63 0 2.645-2.022 4.245-5.344 4.245-3.208 0-5.23-1.512-5.283-3.955zm23.398 3.955c-3.797 0-6.135-2.55-6.135-6.689 0-4.14 2.33-6.68 6.135-6.68 3.19 0 5.608 2.128 5.704 5.002H92.94c-.167-1.38-1.213-2.312-2.602-2.312-1.767 0-2.848 1.512-2.848 3.982 0 2.478 1.081 4.007 2.857 4.007 1.389 0 2.426-.896 2.61-2.258h3.094c-.105 2.9-2.461 4.948-5.713 4.948zm16.068-10.591v3.533h1.907c1.186 0 1.89-.659 1.89-1.758 0-1.08-.748-1.775-1.899-1.775h-1.898zm0 5.81V47h-3.226V34.317h5.581c2.962 0 4.737 1.565 4.737 4.184 0 1.556-.773 2.98-2.162 3.586L113.868 47h-3.622l-2.17-4.438h-1.67zm23.151 1.845V47h-8.692V34.317h8.692v2.593h-5.467v2.531h5.142v2.373h-5.142v2.593h5.467zm16.244 0V47h-8.693V34.317h8.693v2.593h-5.467v2.531h5.141v2.373h-5.141v2.593h5.467zM156.41 47h-3.06V34.317h2.576l5.282 7.137h.167v-7.137h3.059V47h-2.558l-5.3-7.207h-.167V47z"/>
        </g>
    </g>
</svg>
