<?xml version="1.0" encoding="UTF-8"?>
<svg width="100pt" height="100pt" version="1.1" viewBox="0 0 100 100" xmlns="http://www.w3.org/2000/svg">
 <g>
  <path class="graphic-primary" d="m94.297 5h-88.594c-0.39062 0-0.70312 0.31641-0.70312 0.70312v88.594c0 0.38672 0.3125 0.70312 0.70312 0.70312h88.594c0.39062 0 0.70312-0.31641 0.70312-0.70312v-88.594c0-0.38672-0.3125-0.70312-0.70312-0.70312zm-0.70312 88.594h-87.188v-87.188h87.191z"/>
  <path class="graphic-secondary" d="m25.801 35.824c5.6211 0 10.195-4.5742 10.195-10.195s-4.5742-10.195-10.195-10.195c-5.6211 0-10.195 4.5742-10.195 10.195 0 5.625 4.5742 10.195 10.195 10.195zm0-18.984c4.8477 0 8.7891 3.9414 8.7891 8.7891s-3.9414 8.7891-8.7891 8.7891c-4.8477 0-8.7891-3.9414-8.7891-8.7891s3.9414-8.7891 8.7891-8.7891z"/>
  <path class="graphic-tertiary" d="m15.82 81.652c-0.15234 0.21484-0.17578 0.49609-0.054687 0.73047 0.12109 0.23438 0.36328 0.38281 0.625 0.38281h67.223c0.25781 0 0.49609-0.14453 0.61719-0.37109 0.12109-0.22656 0.10938-0.50391-0.03125-0.71875l-24.086-36.336c-0.13281-0.19922-0.38672-0.36328-0.59375-0.3125-0.23828 0.003906-0.46094 0.12891-0.58594 0.32812l-12.828 20.457-9.1172-11.957c-0.13672-0.17969-0.32422-0.30469-0.56641-0.27734-0.22266 0.003906-0.42969 0.10938-0.55859 0.28906zm43.727-34.625 22.758 34.332h-24.344l-10.945-14.352zm-23.102 8.4336 9.1406 11.988 0.003906 0.003906 10.602 13.906h-38.43z"/>
 </g>
</svg>
