<?xml version="1.0" encoding="UTF-8"?>
<svg width="100pt" height="100pt" version="1.1" viewBox="0 0 100 100" xmlns="http://www.w3.org/2000/svg">
 <g fill-rule="evenodd">
  <path d="m-390.62-262.58c-11.734-8.6406-18.652 0.11719-18.84 0.36328-0.49609 0.64062-5.0938 6.0781-13.836-0.36328-7.2461-5.3359-14.848-4.9258-18.105-3.1055v-10.801h64.738v14.648c-1.3672 1.3281-6.207 4.9648-13.957-0.74219zm13.957 20.293h-64.734v-18c0-1.8008 8.2148-5.1055 15.965 0.60156 3.8594 2.8438 7.1953 3.8047 9.9453 3.8008 5.6875 0 8.8555-4.1094 8.9023-4.1719l-0.12109-0.089843 0.12109 0.089843c0.19141-0.25781 4.832-6.2539 13.824 0.37109 3.8555 2.8398 7.2461 3.7969 10.066 3.7969 2.4922 0 4.5039-0.75391 6.0312-1.6094l0.003906 15.211zm-14.203-48.598h-3.7305v10.801h-12.602v-10.801h-3.6016v10.801h-12.586v-10.801h-3.6016v10.801l-18.012-0.003907v41.398h72v-41.398h-17.867z"/>
  <path d="m-425.18-293.47c1.6641 0 3.0195-1.3555 3.0195-3.0156 0-0.89062-1.2773-3.6211-3.0195-6.6211-1.7422 2.9961-3.0195 5.7305-3.0195 6.6211 0 1.6641 1.3555 3.0156 3.0195 3.0156"/>
  <path d="m-392.73-293.47c1.6641 0 3.0195-1.3555 3.0195-3.0156 0-0.89062-1.2773-3.6211-3.0195-6.6211-1.7422 2.9961-3.0195 5.7305-3.0195 6.6211 0 1.6641 1.3516 3.0156 3.0195 3.0156"/>
  <path d="m-408.79-293.47c1.6641 0 3.0195-1.3555 3.0195-3.0156 0-0.89062-1.2773-3.6211-3.0195-6.6211-1.7422 2.9961-3.0195 5.7305-3.0195 6.6211 0 1.6641 1.3555 3.0156 3.0195 3.0156"/>
  <path d="m37.199 36.812l25.418 16.426 25.734-18.25v32.852l-51.152-0.003906zm47.453-3.6523l-21.898 14.602-23.727-14.602zm-51.102 38.328h58.449v-41.977h-58.449z"/>
  <path d="m8 34.988h21.898v3.6484h-21.898z"/>
  <path d="m13.477 49.586h16.426v3.6484h-16.426z"/>
  <path d="m20.773 62.363h9.125v3.6484h-9.125z"/>
 </g>
</svg>
