<?xml version="1.0" encoding="UTF-8"?>
<svg width="100pt" height="100pt" version="1.1" viewBox="0 0 100 100" xmlns="http://www.w3.org/2000/svg">
 <path d="m71.164 26.664c-7.918 0-14.922 3.9688-19.145 10.016 0.875 1.5156 1.6055 3.125 2.1719 4.8086 3.1289-6.2109 9.5586-10.484 16.973-10.484 10.473 0 18.992 8.5195 18.992 18.992s-8.5195 18.992-18.992 18.992c-10.473 0-18.992-8.5195-18.992-18.992 0-12.867-10.469-23.336-23.336-23.336-12.867 0.003906-23.336 10.473-23.336 23.34s10.469 23.336 23.336 23.336c7.918 0 14.922-3.9688 19.145-10.016-0.875-1.5156-1.6055-3.125-2.1719-4.8086-3.125 6.2109-9.5586 10.484-16.973 10.484-10.473-0.003906-18.996-8.5234-18.996-18.996s8.5195-18.992 18.992-18.992c10.477 0 18.996 8.5195 18.996 18.992 0 12.867 10.469 23.336 23.336 23.336 12.867 0 23.336-10.469 23.336-23.336s-10.469-23.336-23.336-23.336z"/>
</svg>
