<?xml version="1.0" encoding="UTF-8"?>
<svg width="100pt" height="100pt" version="1.1" viewBox="0 0 100 100" xmlns="http://www.w3.org/2000/svg">
 <g>
  <path d="m94.199 50c0-24.41-19.789-44.199-44.199-44.199s-44.199 19.789-44.199 44.199 19.789 44.199 44.199 44.199 44.199-19.789 44.199-44.199zm-84.523 0c0-22.27 18.055-40.324 40.324-40.324 22.273 0 40.324 18.051 40.324 40.324s-18.051 40.324-40.324 40.324-40.324-18.055-40.324-40.324z"/>
  <path d="m34.125 45.527c0.58594 0.58594 1.5352 0.58594 2.1211 0l13.316-13.316c0.58594-0.58594 1.5352-0.58594 2.1211 0l13.316 13.316c0.58594 0.58594 1.5352 0.58594 2.1211 0l0.42969-0.42969c0.58594-0.58594 0.58594-1.5352 0-2.1211l-16.93-16.93-16.93 16.93c-0.58594 0.58594-0.58594 1.5352 0 2.1211z"/>
  <path d="m67.125 53.852c-0.58594-0.58594-1.5352-0.58594-2.1211 0l-13.316 13.316c-0.58594 0.58594-1.5352 0.58594-2.1211 0l-13.316-13.316c-0.58594-0.58594-1.5352-0.58594-2.1211 0l-0.42969 0.42969c-0.58594 0.58594-0.58594 1.5352 0 2.1211l16.93 16.93 16.93-16.93c0.58594-0.58594 0.58594-1.5352 0-2.1211z"/>
 </g>
</svg>
