<?xml version="1.0" encoding="UTF-8"?>
<svg width="100pt" height="100pt" version="1.1" viewBox="0 0 100 100" xmlns="http://www.w3.org/2000/svg">
 <g>
  <path class="graphic-secondary" d="m88.488 87.586h-76.977c-3.0703 0-5.5625-2.4961-5.5625-5.5625v-64.047c0-3.0664 2.4961-5.5625 5.5625-5.5625h76.977c3.0664 0 5.5625 2.4961 5.5625 5.5625v64.047c0 3.0664-2.4922 5.5625-5.5625 5.5625zm-76.977-73.066c-1.9062 0-3.457 1.5508-3.457 3.457v64.047c0 1.9062 1.5508 3.457 3.457 3.457h76.977c1.9062 0 3.457-1.5508 3.457-3.457l0.003907-64.047c0-1.9062-1.5508-3.457-3.457-3.457zm73.594 69.535h-5.7109c-1.8242 0-3.3086-1.4844-3.3086-3.3086v-5.7148c0-1.8242 1.4844-3.3086 3.3086-3.3086h5.7109c1.8242 0 3.3086 1.4844 3.3086 3.3086v5.7148c0 1.8242-1.4844 3.3086-3.3086 3.3086zm-5.7109-10.227c-0.66406 0-1.2031 0.53906-1.2031 1.2031v5.7148c0 0.66406 0.53906 1.2031 1.2031 1.2031h5.7109c0.66406 0 1.2031-0.53906 1.2031-1.2031v-5.7148c0-0.66406-0.53906-1.2031-1.2031-1.2031zm-10.414 10.227h-5.7109c-1.8242 0-3.3086-1.4844-3.3086-3.3086v-5.7148c0-1.8242 1.4844-3.3086 3.3086-3.3086h5.7109c1.8242 0 3.3086 1.4844 3.3086 3.3086v5.7148c0 1.8242-1.4844 3.3086-3.3086 3.3086zm-5.7109-10.227c-0.66406 0-1.2031 0.53906-1.2031 1.2031v5.7148c0 0.66406 0.53906 1.2031 1.2031 1.2031h5.7109c0.66406 0 1.2031-0.53906 1.2031-1.2031v-5.7148c0-0.66406-0.53906-1.2031-1.2031-1.2031zm-10.41 10.227h-5.7148c-1.8242 0-3.3086-1.4844-3.3086-3.3086v-5.7148c0-1.8242 1.4844-3.3086 3.3086-3.3086h5.7148c1.8242 0 3.3086 1.4844 3.3086 3.3086v5.7148c-0.003907 1.8242-1.4883 3.3086-3.3086 3.3086zm-5.7148-10.227c-0.66406 0-1.2031 0.53906-1.2031 1.2031v5.7148c0 0.66406 0.53906 1.2031 1.2031 1.2031h5.7148c0.66406 0 1.2031-0.53906 1.2031-1.2031v-5.7148c0-0.66406-0.53906-1.2031-1.2031-1.2031zm-10.414 10.227h-5.7148c-1.8242 0-3.3086-1.4844-3.3086-3.3086l0.003907-5.7148c0-1.8242 1.4844-3.3086 3.3086-3.3086h5.7148c1.8242 0 3.3086 1.4844 3.3086 3.3086v5.7148c-0.003907 1.8242-1.4883 3.3086-3.3125 3.3086zm-5.7109-10.227c-0.66406 0-1.2031 0.53906-1.2031 1.2031v5.7148c0 0.66406 0.53906 1.2031 1.2031 1.2031h5.7148c0.66406 0 1.2031-0.53906 1.2031-1.2031l-0.003906-5.7148c0-0.66406-0.53906-1.2031-1.2031-1.2031zm-10.41 10.227h-5.7148c-1.8242 0-3.3086-1.4844-3.3086-3.3086v-5.7148c0-1.8242 1.4844-3.3086 3.3086-3.3086h5.7148c1.8203 0 3.3047 1.4844 3.3047 3.3086v5.7148c0 1.8242-1.4844 3.3086-3.3047 3.3086zm-5.7148-10.227c-0.66406 0-1.2031 0.53906-1.2031 1.2031v5.7148c0 0.66406 0.53906 1.2031 1.2031 1.2031h5.7148c0.66016 0 1.1992-0.53906 1.1992-1.2031v-5.7148c0-0.66406-0.53906-1.2031-1.1992-1.2031zm36.5-6.7422c-9.4219 0-17.09-7.6641-17.09-17.09 0-9.4219 7.6641-17.09 17.09-17.09 9.4219 0 17.086 7.6641 17.086 17.09 0 9.4258-7.6641 17.09-17.086 17.09zm0-32.07c-8.2617 0-14.984 6.7227-14.984 14.984s6.7227 14.984 14.984 14.984 14.98-6.7227 14.98-14.984-6.7188-14.984-14.98-14.984zm33.711-6.7422h-5.7109c-1.8242 0-3.3086-1.4844-3.3086-3.3086v-5.7109c0-1.8242 1.4844-3.3086 3.3086-3.3086h5.7109c1.8242 0 3.3086 1.4844 3.3086 3.3086v5.7148c0 1.8203-1.4844 3.3047-3.3086 3.3047zm-5.7109-10.223c-0.66406 0-1.2031 0.53906-1.2031 1.2031v5.7148c0 0.66406 0.53906 1.2031 1.2031 1.2031h5.7109c0.66406 0 1.2031-0.53906 1.2031-1.2031v-5.7148c0-0.66406-0.53906-1.2031-1.2031-1.2031zm-10.414 10.223h-5.7109c-1.8242 0-3.3086-1.4844-3.3086-3.3086v-5.7109c0-1.8242 1.4844-3.3086 3.3086-3.3086h5.7109c1.8242 0 3.3086 1.4844 3.3086 3.3086v5.7148c0 1.8203-1.4844 3.3047-3.3086 3.3047zm-5.7109-10.223c-0.66406 0-1.2031 0.53906-1.2031 1.2031v5.7148c0 0.66406 0.53906 1.2031 1.2031 1.2031h5.7109c0.66406 0 1.2031-0.53906 1.2031-1.2031v-5.7148c0-0.66406-0.53906-1.2031-1.2031-1.2031zm-10.41 10.223h-5.7148c-1.8242 0-3.3086-1.4844-3.3086-3.3086v-5.7109c0-1.8242 1.4844-3.3086 3.3086-3.3086h5.7148c1.8242 0 3.3086 1.4844 3.3086 3.3086v5.7148c-0.003907 1.8203-1.4883 3.3047-3.3086 3.3047zm-5.7148-10.223c-0.66406 0-1.2031 0.53906-1.2031 1.2031v5.7148c0 0.66406 0.53906 1.2031 1.2031 1.2031h5.7148c0.66406 0 1.2031-0.53906 1.2031-1.2031v-5.7148c0-0.66406-0.53906-1.2031-1.2031-1.2031zm-10.414 10.223h-5.7148c-1.8242 0-3.3086-1.4844-3.3086-3.3086l0.003907-5.7109c0-1.8242 1.4844-3.3086 3.3086-3.3086h5.7148c1.8242 0 3.3086 1.4844 3.3086 3.3086v5.7148c-0.003907 1.8203-1.4883 3.3047-3.3125 3.3047zm-5.7109-10.223c-0.66406 0-1.2031 0.53906-1.2031 1.2031v5.7148c0 0.66406 0.53906 1.2031 1.2031 1.2031h5.7148c0.66406 0 1.2031-0.53906 1.2031-1.2031l-0.003906-5.7148c0-0.66406-0.53906-1.2031-1.2031-1.2031zm-10.41 10.223h-5.7148c-1.8242 0-3.3086-1.4844-3.3086-3.3086v-5.7109c0-1.8242 1.4844-3.3086 3.3086-3.3086h5.7148c1.8203 0 3.3047 1.4844 3.3047 3.3086v5.7148c0 1.8203-1.4844 3.3047-3.3047 3.3047zm-5.7148-10.223c-0.66406 0-1.2031 0.53906-1.2031 1.2031v5.7148c0 0.66406 0.53906 1.2031 1.2031 1.2031h5.7148c0.66016 0 1.1992-0.53906 1.1992-1.2031v-5.7148c0-0.66406-0.53906-1.2031-1.1992-1.2031z"/>
  <path class="graphic-primary" d="m51.395 63.723c-7.5664 0-13.723-6.1562-13.723-13.723s6.1562-13.723 13.723-13.723c7.5664 0 13.723 6.1562 13.723 13.723s-6.1562 13.723-13.723 13.723zm0-25.34c-6.4062 0-11.617 5.2109-11.617 11.617s5.2109 11.617 11.617 11.617 11.617-5.2109 11.617-11.617-5.2109-11.617-11.617-11.617zm-6.3359 19.902v-16.574l17.438 8.2891zm2.1016-13.242v9.9102l10.426-4.9531z"/>
 </g>
</svg>
